<?xml version="1.0" encoding="UTF-8" standalone="yes"?>
<svg class="img-fluid" width="450" height="450" viewBox="0 0 4500 4500" version="1.2" baseProfile="tiny-ps" xmlns="http://www.w3.org/2000/svg">
  <title>bimi-svg-tiny-12-ps</title>
  <g id="l6dzdLD5mm6Th3tPh5FxvDw" fill="rgb(254,254,254)" transform="none">
    <g>
      <path id="pvMsr5gm7" d="M0 3460 l0 -1040 24 0 c29 0 36 21 36 104 0 33 4 73 9 90 6 17 15 58 21 91 7 33 16 68 21 77 5 10 9 29 9 42 0 14 4 28 10 31 5 3 10 17 10 30 0 13 4 26 8 29 4 3 14 28 22 56 8 28 18 53 22 56 4 3 8 12 8 20 0 13 66 163 92 209 6 11 25 45 41 75 120 219 321 457 537 635 208 172 464 309 735 395 39 13 79 26 90 30 26 10 189 42 235 47 92 10 100 13 100 38 l0 25 -1015 0 -1015 0 0 -1040z"/>
      <path id="p23K4vJl1" d="M2460 4476 c0 -23 5 -25 68 -31 68 -6 143 -20 196 -36 16 -5 40 -9 53 -9 13 0 31 -4 41 -9 9 -5 49 -18 87 -30 429 -134 777 -374 1092 -757 18 -22 49 -64 69 -94 21 -30 41 -56 46 -58 4 -2 8 -8 8 -14 0 -6 20 -42 44 -82 38 -62 123 -231 146 -291 4 -11 17 -44 29 -74 12 -29 21 -62 21 -72 0 -10 5 -21 10 -24 6 -3 10 -17 10 -30 0 -13 4 -26 9 -29 5 -3 11 -20 14 -38 3 -18 11 -55 17 -83 6 -27 13 -68 16 -90 9 -77 13 -85 39 -85 l25 0 0 980 0 980 -1020 0 -1020 0 0 -24z"/>
      <path id="pGVhyMHZZ" d="M2065 4230 c-22 -5 -60 -9 -84 -9 -24 -1 -60 -5 -80 -10 -20 -5 -61 -14 -91 -21 -94 -19 -224 -58 -285 -85 -16 -7 -55 -23 -85 -35 -94 -36 -257 -132 -390 -229 -251 -182 -488 -484 -625 -794 -33 -76 -85 -227 -85 -250 0 -9 -4 -25 -9 -35 -5 -9 -14 -42 -19 -72 -6 -30 -16 -80 -22 -110 -27 -138 -22 -519 10 -705 6 -33 13 -77 16 -98 4 -20 10 -40 15 -43 5 -3 9 -18 9 -34 0 -16 5 -32 10 -35 6 -3 10 -17 10 -31 0 -14 9 -44 20 -66 11 -23 20 -48 20 -55 0 -7 8 -27 18 -45 9 -18 23 -50 30 -71 11 -31 56 -115 117 -219 82 -141 296 -380 450 -504 168 -135 549 -334 640 -334 12 0 25 -4 31 -9 10 -9 66 -23 154 -40 30 -5 79 -14 108 -20 70 -14 554 -14 624 0 29 6 78 15 108 20 61 12 124 27 155 39 11 4 38 13 60 19 179 54 450 195 586 305 156 125 308 279 379 382 8 12 34 48 57 81 86 123 223 394 223 442 0 11 4 22 9 25 5 3 11 16 14 28 3 13 11 41 17 63 6 22 16 61 21 88 5 26 14 71 20 100 49 243 41 622 -20 862 -26 104 -61 214 -87 273 -9 20 -20 46 -24 57 -12 30 -59 127 -73 150 -7 11 -24 39 -39 63 -16 24 -28 45 -28 47 0 2 -15 25 -32 51 -18 25 -40 56 -48 69 -56 84 -249 289 -351 370 -245 197 -561 346 -844 396 -168 31 -526 47 -610 29z m-90 -265 c42 -20 55 -33 77 -77 14 -29 29 -62 33 -73 17 -47 35 -176 35 -247 l0 -78 28 0 c15 0 50 3 78 6 l52 7 6 91 c17 259 38 322 117 363 36 18 60 22 136 23 51 0 95 -4 98 -10 3 -5 16 -10 27 -10 19 0 109 -27 163 -50 320 -131 533 -274 581 -389 30 -72 10 -133 -86 -250 -59 -73 -60 -75 -60 -137 l0 -64 36 0 c30 0 52 13 129 75 95 76 175 125 205 125 51 0 206 -146 249 -236 13 -27 32 -66 42 -87 10 -22 19 -45 19 -53 0 -8 4 -22 9 -32 19 -36 51 -125 51 -143 0 -10 5 -21 10 -24 6 -3 10 -19 10 -35 0 -16 4 -31 9 -34 5 -3 11 -23 14 -43 3 -21 11 -60 17 -88 17 -72 23 -174 13 -199 -38 -87 -60 -120 -97 -145 -76 -50 -106 -55 -336 -48 l-211 6 -39 -38 c-32 -31 -40 -46 -40 -74 0 -38 -8 -34 125 -53 22 -3 49 -9 60 -14 11 -5 34 -11 50 -14 74 -12 192 -39 207 -47 10 -5 25 -9 34 -9 30 0 103 -50 119 -80 19 -37 20 -169 1 -231 -19 -63 -44 -110 -134 -253 -142 -228 -279 -392 -376 -454 -77 -48 -165 -30 -254 52 -38 35 -152 172 -152 183 0 4 -12 19 -26 34 -15 15 -32 37 -38 47 -6 11 -59 92 -118 181 -60 89 -108 163 -108 166 0 2 -13 24 -30 48 -16 25 -30 48 -30 53 0 4 -6 15 -14 23 -7 9 -31 48 -51 86 -21 39 -46 82 -57 97 -10 14 -18 28 -18 31 0 10 -74 132 -82 135 -5 2 -8 12 -8 22 0 39 -11 50 -50 50 -59 0 -70 -8 -70 -47 0 -26 8 -42 30 -63 17 -15 30 -33 30 -39 0 -7 7 -14 15 -17 8 -4 15 -15 15 -26 0 -17 56 -135 71 -148 3 -3 11 -21 19 -40 7 -19 21 -46 30 -60 9 -14 29 -52 44 -85 16 -33 53 -109 84 -170 310 -613 319 -634 295 -692 -15 -39 -90 -103 -167 -144 -67 -36 -104 -47 -196 -60 -441 -61 -603 -50 -741 50 -62 46 -79 79 -79 158 0 36 5 84 11 107 35 137 50 190 60 208 5 10 9 34 9 53 0 32 -4 38 -37 52 -21 9 -59 18 -85 21 l-47 4 -34 -73 c-66 -144 -81 -175 -111 -224 -16 -27 -39 -61 -50 -74 -28 -32 -96 -60 -121 -50 -11 4 -46 15 -77 24 -91 27 -162 81 -333 256 -175 179 -201 211 -272 324 -23 38 -51 100 -63 140 -15 52 4 99 66 165 41 44 114 87 249 145 105 45 110 49 113 87 2 20 -4 62 -13 93 l-17 57 -91 -6 c-51 -3 -121 -10 -157 -16 -36 -6 -96 -13 -135 -16 -65 -4 -73 -2 -109 23 -41 29 -69 69 -78 113 -3 14 -13 52 -23 85 -17 63 -16 147 3 255 6 30 13 73 17 95 11 62 62 233 112 370 35 98 98 172 182 215 55 27 66 26 160 -20 45 -22 84 -40 87 -40 3 0 38 -22 79 -50 97 -65 127 -67 173 -6 55 74 49 88 -80 201 -62 54 -119 105 -125 114 -90 114 -93 123 -62 177 52 94 125 185 165 207 12 7 57 36 100 65 93 61 267 149 364 182 19 7 44 16 55 20 21 9 49 15 135 31 30 5 56 12 59 15 9 8 64 -7 116 -31z"/>
      <path id="p1EUfJJXgq" d="M2801 2740 c-23 -23 -31 -39 -31 -65 0 -33 2 -35 33 -35 47 1 97 49 97 95 0 33 -2 35 -34 35 -23 0 -42 -9 -65 -30z"/>
      <path id="pckS2Q6Gt" d="M1343 2583 c-13 -2 -23 -9 -23 -14 0 -5 -9 -9 -20 -9 -16 0 -20 -7 -20 -35 0 -33 -2 -35 -34 -35 -30 0 -36 -4 -50 -40 -9 -22 -16 -54 -16 -70 0 -27 3 -30 33 -30 28 0 34 5 50 43 9 23 17 55 17 70 0 24 4 27 35 27 19 0 35 4 35 9 0 5 18 12 40 16 38 6 40 9 40 41 0 32 -2 34 -32 33 -18 -1 -43 -4 -55 -6z"/>
      <path id="pGGtRqsBJ" d="M1450 2556 c0 -36 15 -46 73 -46 19 0 27 -5 27 -17 1 -32 57 -83 90 -83 28 0 30 3 30 34 0 50 -41 96 -86 96 -27 0 -34 4 -34 19 0 20 -25 31 -72 31 -25 0 -28 -4 -28 -34z"/>
      <path id="p8zEINcqg" d="M1630 2330 c0 -33 -4 -60 -10 -60 -5 0 -10 -15 -10 -34 0 -30 -3 -35 -27 -38 -20 -2 -29 -9 -31 -25 -3 -19 -10 -23 -38 -23 -32 0 -34 -2 -34 -35 0 -33 2 -35 35 -35 28 0 35 4 35 19 0 16 8 20 38 23 35 3 37 5 40 41 3 32 7 37 28 37 21 0 24 5 24 35 0 19 5 35 10 35 6 0 10 27 10 60 l0 60 -35 0 -35 0 0 -60z"/>
      <path id="piDwusMsq" d="M1180 2275 c0 -19 8 -50 17 -70 13 -28 22 -35 45 -35 24 0 28 -4 28 -30 0 -20 5 -30 15 -30 8 0 15 -4 15 -10 0 -5 14 -10 30 -10 17 0 30 -4 30 -10 0 -5 16 -10 35 -10 33 0 35 2 35 35 0 32 -2 35 -30 35 -16 0 -30 5 -30 10 0 6 -7 10 -15 10 -8 0 -15 5 -15 10 0 6 -13 10 -30 10 -24 0 -30 4 -30 22 0 13 -8 42 -17 65 -16 38 -22 43 -50 43 -31 0 -33 -2 -33 -35z"/>
      <path id="pMMyQNmhz" d="M0 1050 l0 -1050 1015 0 1015 0 0 24 c0 22 -5 25 -47 31 -380 47 -798 224 -1090 461 -88 71 -215 186 -238 214 -11 14 -45 53 -75 87 -71 80 -96 113 -151 194 -61 91 -66 99 -90 146 -11 23 -27 47 -35 54 -8 6 -14 16 -14 21 0 6 -13 38 -29 72 -26 55 -49 107 -71 161 -11 26 -44 128 -60 185 -7 25 -16 54 -20 65 -5 11 -11 36 -15 55 -3 19 -10 58 -16 85 -8 42 -26 187 -28 233 -1 6 -12 12 -26 12 l-25 0 0 -1050z"/>
      <path id="pUv3eNg5D" d="M4445 1938 c-2 -7 -6 -33 -9 -58 -3 -25 -10 -65 -16 -90 -7 -25 -14 -62 -17 -83 -3 -20 -9 -40 -14 -43 -5 -3 -9 -14 -9 -25 0 -10 -4 -27 -10 -37 -5 -9 -16 -37 -24 -62 -25 -79 -56 -152 -110 -260 -262 -523 -703 -915 -1256 -1118 -30 -11 -75 -25 -100 -32 -25 -7 -54 -16 -65 -20 -11 -5 -33 -11 -50 -14 -16 -3 -52 -10 -80 -16 -27 -5 -68 -13 -90 -16 -106 -14 -105 -14 -105 -39 l0 -25 1005 0 1005 0 0 975 0 975 -25 0 c-14 0 -27 -6 -30 -12z"/>
    </g>
  </g>
  <g id="l4d6dssaGuaf7hSfD1RqEM0" fill="rgb(253,241,208)" transform="none">
    <g>
      <path id="p748njAir" d="M1998 4489 c-2 -6 -33 -14 -68 -18 -72 -8 -234 -39 -265 -51 -11 -4 -51 -17 -90 -30 -271 -86 -527 -223 -735 -395 -216 -178 -417 -416 -537 -635 -16 -30 -35 -64 -41 -75 -26 -46 -92 -196 -92 -209 0 -8 -4 -17 -8 -20 -4 -3 -14 -28 -22 -56 -8 -28 -18 -53 -22 -56 -4 -3 -8 -16 -8 -29 0 -13 -4 -27 -10 -30 -5 -3 -10 -17 -10 -31 0 -13 -4 -32 -9 -42 -5 -9 -14 -44 -21 -77 -6 -33 -15 -74 -21 -91 -5 -17 -9 -57 -9 -90 0 -68 -8 -106 -21 -98 -5 3 -9 -86 -8 -208 0 -128 4 -205 9 -193 6 14 9 15 10 5 9 -93 21 -194 29 -235 6 -27 13 -66 16 -85 4 -19 10 -44 15 -55 4 -11 13 -40 20 -65 16 -57 49 -159 60 -185 22 -54 45 -106 71 -161 16 -34 29 -66 29 -72 0 -5 6 -15 14 -21 8 -7 24 -31 35 -54 24 -47 29 -55 90 -146 55 -81 80 -114 151 -194 30 -34 64 -73 75 -87 23 -28 150 -143 238 -214 166 -135 435 -283 642 -354 165 -56 301 -89 448 -107 26 -4 45 -10 42 -16 -4 -5 99 -9 265 -9 169 0 269 4 265 9 -5 10 8 13 100 25 22 3 63 11 90 16 28 6 64 13 80 16 17 3 39 9 50 14 11 4 40 13 65 20 164 45 424 167 584 275 270 182 503 422 668 687 85 138 175 324 214 448 8 25 19 53 24 62 6 10 10 27 10 37 0 11 4 22 9 25 5 3 11 23 14 43 3 21 10 58 17 83 6 25 14 69 17 98 3 32 11 56 19 59 19 7 21 649 2 655 -7 3 -15 31 -19 64 -4 32 -13 82 -19 109 -6 28 -14 65 -17 83 -3 18 -9 35 -14 38 -5 3 -9 16 -9 29 0 13 -4 27 -10 30 -6 3 -10 14 -10 24 0 10 -9 43 -21 72 -12 30 -25 63 -29 74 -23 60 -108 229 -146 291 -24 40 -44 76 -44 82 0 6 -4 12 -8 14 -5 2 -25 28 -46 58 -101 150 -289 347 -463 486 -98 78 -262 182 -368 232 -145 70 -205 94 -330 133 -38 12 -78 25 -87 30 -10 5 -28 9 -41 9 -13 0 -37 4 -53 9 -53 16 -128 30 -199 37 -50 5 -64 9 -50 15 11 4 -98 8 -242 8 -183 1 -262 -2 -265 -10z m552 -54 c110 -17 186 -32 230 -44 67 -18 165 -49 220 -69 128 -47 155 -57 160 -62 3 -3 45 -25 95 -50 71 -36 212 -124 342 -215 8 -5 35 -29 61 -52 26 -24 57 -43 69 -43 15 0 23 -6 23 -17 0 -23 109 -133 132 -133 12 0 18 -8 18 -22 0 -14 21 -46 50 -77 28 -30 50 -56 50 -58 0 -7 90 -131 98 -135 23 -10 206 -390 248 -513 38 -114 42 -129 68 -255 9 -41 20 -97 26 -123 5 -27 10 -169 10 -317 0 -326 -14 -418 -102 -685 -40 -121 -173 -414 -194 -427 -6 -4 -19 -26 -30 -49 -10 -24 -29 -53 -41 -65 -13 -13 -23 -27 -23 -32 0 -6 -14 -24 -30 -42 -16 -18 -30 -35 -30 -39 0 -4 -23 -32 -50 -62 -28 -30 -53 -66 -57 -81 -3 -18 -12 -28 -23 -28 -9 0 -49 -34 -88 -75 -39 -41 -74 -75 -77 -75 -14 0 -85 -64 -85 -77 0 -7 -6 -13 -14 -13 -7 0 -70 -38 -140 -84 -196 -132 -364 -211 -596 -281 -107 -33 -134 -39 -320 -70 -118 -20 -475 -20 -595 1 -230 39 -347 71 -515 141 -451 189 -817 501 -1064 906 -56 91 -146 265 -146 281 0 3 -9 25 -19 49 -25 52 -64 170 -91 274 -119 445 -85 915 100 1363 16 40 30 79 30 86 0 7 3 14 8 16 9 4 52 90 52 105 0 6 4 13 8 15 4 2 26 32 47 68 42 69 114 174 181 261 48 63 278 292 344 342 109 85 255 177 385 243 77 39 151 75 165 79 14 4 39 13 55 20 70 31 269 86 375 104 36 6 85 15 110 20 74 15 474 12 570 -4z"/>
      <path id="pqhWAcDMP" d="M2060 4238 c-251 -26 -473 -88 -685 -192 -147 -72 -345 -200 -353 -228 -2 -10 -13 -18 -23 -18 -10 0 -45 -25 -78 -56 -48 -44 -61 -63 -61 -85 0 -25 -4 -29 -28 -29 -31 0 -58 -25 -141 -129 -28 -35 -51 -73 -51 -83 0 -10 -6 -18 -13 -18 -29 0 -162 -235 -225 -395 -49 -125 -65 -177 -90 -290 -44 -197 -45 -208 -45 -465 0 -299 10 -371 87 -628 29 -94 95 -255 108 -260 4 -2 8 -10 8 -17 0 -16 60 -129 83 -156 10 -11 17 -23 17 -27 1 -23 140 -204 161 -209 11 -3 19 -13 19 -23 0 -16 184 -210 200 -210 4 0 26 -18 49 -40 23 -22 48 -40 56 -40 8 0 15 -4 15 -10 0 -5 30 -29 68 -53 172 -113 338 -192 518 -248 94 -29 127 -37 254 -60 87 -17 531 -23 630 -9 392 54 739 209 1040 465 234 199 397 426 544 757 38 86 106 328 106 379 0 15 4 38 9 51 5 13 12 76 16 141 6 101 5 117 -8 117 -20 0 -27 -28 -37 -135 -5 -49 -13 -114 -19 -142 -6 -29 -15 -74 -20 -100 -5 -27 -15 -66 -21 -88 -6 -22 -14 -50 -17 -63 -3 -12 -9 -25 -14 -28 -5 -3 -9 -14 -9 -25 0 -48 -137 -319 -223 -442 -23 -33 -49 -69 -57 -81 -71 -103 -223 -257 -379 -382 -136 -110 -407 -251 -586 -305 -22 -6 -49 -15 -60 -19 -31 -12 -94 -27 -155 -39 -30 -5 -79 -14 -108 -20 -69 -14 -495 -14 -564 0 -29 6 -78 15 -108 20 -88 17 -144 31 -154 40 -6 5 -19 9 -31 9 -91 0 -472 199 -640 334 -154 124 -368 363 -450 504 -61 104 -106 188 -117 219 -7 21 -21 53 -30 71 -10 18 -18 38 -18 45 0 7 -9 32 -20 55 -11 22 -20 52 -20 66 0 14 -4 28 -10 31 -5 3 -10 19 -10 35 0 16 -4 31 -9 34 -5 3 -11 23 -15 43 -3 21 -10 65 -16 98 -32 185 -37 503 -9 645 5 30 15 80 20 110 6 30 15 63 20 72 5 10 9 26 9 35 0 23 52 174 85 250 117 266 301 519 510 700 157 136 364 268 505 323 30 12 69 28 85 35 109 49 334 104 500 122 89 10 340 10 425 0 94 -11 244 -39 305 -58 272 -81 499 -199 704 -364 102 -81 295 -286 351 -370 8 -13 30 -44 48 -69 17 -26 32 -49 32 -51 0 -2 12 -23 28 -47 15 -24 32 -52 39 -63 14 -23 61 -120 73 -150 4 -11 15 -37 24 -57 17 -39 51 -139 68 -198 32 -116 45 -189 57 -310 11 -109 20 -140 38 -140 13 0 14 16 8 113 -4 61 -11 122 -16 135 -5 13 -9 36 -9 51 0 16 -9 66 -21 112 -71 288 -198 546 -383 778 -61 76 -247 262 -311 310 -206 156 -452 286 -645 340 -25 7 -54 16 -65 21 -35 13 -246 48 -355 59 -120 13 -266 12 -390 -1z"/>
      <path id="pmYaga9ss" d="M1830 4027 c-3 -4 -30 -11 -60 -16 -86 -16 -114 -22 -135 -31 -11 -4 -36 -13 -55 -20 -97 -33 -271 -121 -364 -182 -43 -29 -88 -58 -100 -65 -40 -22 -113 -113 -165 -206 -26 -46 -27 -112 -3 -148 63 -95 55 -87 194 -209 85 -73 105 -96 97 -107 -9 -10 -5 -13 20 -13 24 0 31 4 31 20 0 13 7 20 18 20 25 0 112 91 112 118 0 18 6 22 30 22 20 0 30 5 30 15 0 8 9 15 20 15 11 0 20 3 20 8 0 4 13 13 28 20 16 6 37 20 48 30 29 26 209 108 301 136 71 22 110 30 251 52 32 5 47 34 17 34 -12 0 -15 15 -15 78 0 71 -18 200 -35 247 -4 11 -19 44 -33 73 -22 44 -35 57 -79 78 -48 24 -161 44 -173 31z m134 -62 c46 -22 88 -77 109 -142 16 -51 37 -183 37 -237 0 -33 0 -33 -60 -40 -70 -8 -190 -38 -275 -68 -61 -22 -196 -85 -205 -97 -3 -3 -22 -15 -44 -26 -21 -11 -41 -25 -43 -32 -3 -7 -11 -13 -19 -13 -8 0 -14 -7 -14 -15 0 -8 -9 -15 -20 -15 -15 0 -20 -7 -20 -25 0 -21 -5 -25 -29 -25 -21 0 -41 -13 -79 -54 l-51 -54 -91 80 c-100 90 -177 178 -186 214 -7 27 18 73 89 171 90 122 414 304 662 371 132 36 175 37 239 7z"/>
      <path id="p1EYF5tHbt" d="M2371 3987 c-79 -41 -100 -104 -117 -364 -5 -72 -10 -93 -21 -93 -8 0 -13 -7 -11 -17 2 -13 15 -19 42 -21 l38 -3 -7 65 c-6 63 3 156 27 281 13 65 38 96 98 121 39 17 183 15 255 -3 201 -50 573 -246 666 -351 95 -109 90 -202 -18 -320 -24 -26 -43 -52 -43 -58 0 -7 -7 -14 -15 -18 -11 -4 -15 -21 -15 -65 0 -33 3 -66 6 -75 10 -27 65 -19 104 15 109 94 215 169 250 175 40 8 95 -24 166 -98 74 -77 91 -104 144 -238 59 -148 97 -268 121 -380 6 -30 15 -68 20 -84 14 -46 10 -138 -7 -191 -32 -93 -126 -155 -236 -155 -41 0 -48 -3 -48 -20 0 -18 7 -20 62 -20 71 0 116 13 174 51 37 25 59 58 96 145 12 26 4 193 -11 259 -7 28 -15 67 -18 88 -3 20 -9 40 -14 43 -5 3 -9 18 -9 34 0 16 -4 32 -10 35 -5 3 -10 14 -10 24 0 18 -32 107 -51 143 -5 10 -9 24 -9 32 0 8 -9 31 -19 53 -10 21 -29 60 -42 87 -50 104 -214 246 -283 246 -37 0 -133 -56 -230 -134 -51 -42 -97 -76 -100 -76 -3 0 -6 15 -6 34 0 26 13 49 60 107 33 40 69 92 80 116 24 51 27 144 6 194 -48 115 -261 258 -581 389 -54 23 -144 50 -163 50 -11 0 -24 5 -27 10 -4 6 -57 10 -128 10 -107 -1 -128 -3 -166 -23z"/>
      <path id="pQ04f6O6J" d="M2330 3516 l0 -33 61 -7 c115 -12 401 -109 445 -151 6 -5 28 -19 50 -30 21 -11 43 -26 47 -32 4 -7 24 -13 42 -13 33 0 35 2 35 36 0 27 -5 37 -20 41 -11 3 -20 9 -20 13 0 4 -21 18 -47 31 -26 13 -53 29 -60 35 -19 18 -151 71 -247 98 -97 29 -191 46 -248 46 -36 0 -38 -1 -38 -34z"/>
      <path id="pWCGWvNnm" d="M2960 3135 l0 -55 35 0 35 0 0 55 0 55 -35 0 -35 0 0 -55z"/>
      <path id="pyQrVkNot" d="M710 3124 c-84 -48 -138 -113 -173 -209 -50 -137 -101 -308 -112 -370 -4 -22 -12 -65 -17 -95 -19 -106 -20 -250 -3 -315 10 -33 20 -71 23 -85 9 -44 37 -84 78 -113 38 -26 42 -27 139 -23 55 3 129 10 165 16 139 22 182 24 192 6 5 -9 14 -16 20 -16 10 0 10 10 -8 198 l-6 62 -34 0 c-34 0 -34 0 -33 -47 0 -27 4 -69 8 -94 l7 -47 -55 -7 c-31 -4 -83 -11 -116 -16 -151 -21 -208 -22 -242 0 -18 11 -39 31 -48 45 -23 34 -64 191 -65 242 0 36 22 197 34 249 51 216 77 300 127 413 44 97 150 192 216 192 57 0 312 -141 313 -172 0 -10 -4 -18 -8 -18 -14 0 -102 -194 -102 -223 0 -14 -4 -27 -8 -29 -14 -5 -52 -175 -59 -259 l-6 -79 37 0 c34 0 36 2 36 33 0 42 51 281 62 285 4 2 8 9 8 15 0 16 93 211 103 215 4 2 7 10 7 18 0 8 5 14 10 14 6 0 10 21 10 48 -1 42 -2 45 -15 29 -13 -18 -18 -16 -89 32 -41 28 -77 51 -80 51 -3 0 -42 18 -87 40 -102 50 -160 53 -229 14z"/>
      <path id="pVPKNhRAA" d="M2950 3020 l0 -50 35 0 35 0 0 50 0 50 -35 0 -35 0 0 -50z"/>
      <path id="p180Xiiog0" d="M3270 2938 c0 -18 3 -70 7 -115 l6 -83 33 0 c21 0 34 5 34 13 0 23 31 -47 60 -138 35 -110 60 -229 60 -290 l0 -45 37 0 36 0 -6 93 c-11 164 -65 350 -145 502 -46 87 -49 90 -85 93 -36 3 -37 2 -37 -30z"/>
      <path id="pq0SjPb5r" d="M2940 2860 l0 -50 35 0 35 0 0 50 0 50 -35 0 -35 0 0 -50z"/>
      <path id="p18LtEJZHp" d="M2893 2793 c-12 -2 -51 -32 -87 -66 -56 -54 -65 -68 -71 -108 -7 -50 10 -159 26 -159 5 0 9 -7 9 -15 0 -8 7 -15 15 -15 8 0 15 -7 15 -15 0 -20 75 -54 118 -55 30 0 32 2 32 33 -1 29 -5 34 -55 57 -30 14 -55 30 -55 37 0 7 -4 13 -9 13 -14 0 -31 81 -21 101 6 9 38 42 72 73 44 39 71 56 91 56 24 0 27 3 27 35 0 35 0 35 -42 34 -24 -1 -53 -4 -65 -6z m-24 -65 c-2 -2 -19 -16 -37 -32 -17 -17 -32 -27 -32 -23 0 11 63 68 68 62 3 -3 3 -6 1 -7z"/>
      <path id="p1CMKdfS3R" d="M3290 2678 c0 -18 3 -70 7 -115 l6 -83 35 0 35 0 -6 83 c-4 45 -7 97 -7 115 0 30 -2 32 -35 32 -33 0 -35 -2 -35 -32z"/>
      <path id="pOadnfzCT" d="M3456 2197 c-10 -28 -20 -74 -23 -102 -4 -43 -3 -48 9 -33 12 16 26 17 148 10 144 -9 170 -7 170 13 0 12 -82 25 -166 25 -65 0 -74 6 -63 43 5 18 9 47 9 64 0 31 -2 33 -32 33 -31 0 -34 -4 -52 -53z"/>
      <path id="pwlCE5FZl" d="M2520 2101 c-94 -18 -132 -32 -137 -52 -4 -15 -14 -19 -44 -19 -26 0 -42 -5 -45 -15 -4 -8 -11 -15 -17 -15 -16 0 -67 -51 -67 -67 0 -7 -4 -13 -9 -13 -23 0 -46 -96 -46 -186 1 -83 4 -98 34 -158 18 -37 39 -70 47 -73 8 -3 14 -10 14 -16 0 -20 54 -67 77 -67 16 0 23 -6 23 -20 0 -11 8 -24 18 -27 9 -4 19 -10 22 -13 12 -17 92 -60 110 -60 13 0 20 -7 20 -20 0 -10 5 -31 12 -45 9 -19 19 -25 45 -25 32 0 33 2 33 38 -1 44 -19 72 -48 72 -15 0 -22 7 -24 26 -2 19 -16 32 -53 52 -27 15 -54 33 -58 40 -4 6 -19 12 -32 12 -18 0 -25 6 -25 19 0 10 -15 32 -32 48 -60 53 -111 156 -112 223 -1 58 27 121 77 171 40 40 57 48 57 28 0 -6 15 -37 34 -68 18 -31 75 -139 127 -241 51 -102 97 -186 101 -188 4 -2 8 -9 8 -16 0 -18 24 -66 33 -66 4 0 7 -6 7 -13 0 -8 57 -128 128 -268 70 -140 137 -284 150 -321 21 -62 21 -70 8 -97 -33 -64 -166 -151 -266 -175 -127 -30 -349 -56 -481 -56 -192 0 -315 40 -385 126 -31 38 -34 47 -34 109 0 37 5 86 11 109 6 22 15 59 21 81 6 22 14 51 18 65 5 14 11 37 14 51 l6 27 62 -14 c35 -7 109 -16 166 -20 l102 -7 0 35 0 35 -87 7 c-49 3 -115 13 -148 21 -61 15 -155 20 -155 9 0 -4 7 -12 16 -19 12 -9 14 -16 6 -31 -11 -22 -18 -45 -61 -210 -6 -23 -11 -85 -11 -137 0 -112 11 -138 79 -188 101 -73 203 -93 421 -85 85 3 191 10 235 16 248 32 258 34 342 79 87 46 157 111 173 161 15 44 5 106 -27 180 -15 35 -170 348 -275 555 -31 61 -68 137 -84 170 -15 33 -35 71 -44 85 -9 14 -23 41 -30 60 -8 19 -16 37 -19 40 -14 12 -71 130 -71 146 0 9 -7 22 -17 29 -9 7 -13 17 -9 24 5 8 22 -12 47 -54 21 -37 39 -69 39 -72 0 -3 8 -17 18 -31 11 -15 36 -58 57 -97 20 -38 44 -77 51 -86 8 -8 14 -19 14 -23 0 -5 14 -28 30 -53 17 -24 30 -46 30 -48 0 -3 48 -77 108 -166 59 -89 112 -170 118 -181 6 -10 23 -32 38 -47 14 -15 26 -30 26 -34 0 -12 116 -151 157 -188 40 -36 83 -59 144 -78 44 -14 113 1 169 35 91 55 232 226 372 450 119 189 148 256 148 342 0 35 -3 42 -20 42 -16 0 -20 -7 -20 -35 0 -49 -35 -137 -91 -231 -27 -45 -49 -85 -49 -88 0 -3 -7 -14 -16 -24 -17 -19 -104 -150 -104 -157 0 -2 -11 -16 -25 -31 -14 -15 -25 -31 -25 -35 0 -4 -25 -31 -55 -60 -30 -28 -55 -57 -55 -63 0 -6 -11 -18 -24 -26 -13 -8 -43 -28 -67 -45 -36 -24 -54 -29 -99 -29 -89 1 -146 46 -276 219 -138 184 -389 574 -511 795 -11 19 -36 65 -56 101 l-37 66 42 13 c65 19 185 24 263 10 39 -6 91 -14 118 -17 l47 -6 0 36 0 35 -62 12 c-79 15 -288 22 -348 11z m-104 -106 c11 -44 0 -51 -31 -21 -22 22 -25 30 -14 37 24 15 38 10 45 -16z"/>
      <path id="p1ERagk2AC" d="M3350 1985 c0 -32 2 -35 30 -35 16 0 49 -4 72 -10 82 -19 223 -51 268 -61 107 -25 155 -43 192 -77 27 -25 38 -42 38 -63 0 -22 5 -29 20 -29 16 0 20 7 20 35 0 20 -7 49 -15 65 -16 30 -89 80 -119 80 -9 0 -24 4 -34 9 -15 8 -133 35 -207 47 -16 3 -39 9 -50 14 -11 5 -38 11 -60 14 -117 16 -126 19 -121 32 3 9 -2 14 -14 14 -16 0 -20 -7 -20 -35z"/>
      <path id="pse4l3YUk" d="M1493 1929 c-46 -23 -93 -71 -93 -95 0 -9 -7 -22 -15 -30 -8 -9 -15 -33 -15 -55 0 -38 1 -39 34 -39 31 0 35 3 41 33 9 40 92 123 134 132 27 6 31 11 31 41 0 33 -1 34 -37 34 -21 0 -57 -9 -80 -21z"/>
      <path id="pn9vFb5NG" d="M1650 1915 c0 -31 4 -35 38 -46 46 -14 107 -84 122 -139 31 -113 -107 -251 -220 -220 -52 14 -135 93 -145 138 -6 28 -11 32 -41 32 -33 0 -34 -1 -34 -38 0 -90 84 -181 187 -202 82 -17 213 2 213 32 0 4 6 8 14 8 44 0 106 127 106 215 0 88 -62 215 -106 215 -8 0 -14 4 -14 9 0 12 -56 31 -91 31 -26 0 -29 -3 -29 -35z"/>
      <path id="p1ASW5epuI" d="M1027 1841 c-2 -10 -21 -26 -41 -35 -20 -9 -53 -23 -73 -32 -189 -82 -272 -144 -307 -229 -31 -73 -11 -171 57 -280 71 -113 97 -145 272 -324 171 -175 242 -229 333 -256 31 -9 67 -21 80 -26 35 -14 66 -11 114 10 49 21 72 45 114 116 30 49 45 80 111 223 24 54 37 72 48 68 11 -4 15 2 15 22 -1 24 -9 31 -68 57 -37 16 -76 38 -87 48 -11 10 -29 20 -42 23 -12 3 -24 12 -27 20 -3 8 -12 14 -20 14 -7 0 -16 7 -20 15 -3 8 -15 15 -26 15 -11 0 -20 6 -20 13 0 16 -121 137 -138 137 -6 0 -12 9 -12 20 0 11 -9 25 -20 32 -11 7 -20 17 -20 21 0 8 -57 96 -69 107 -3 3 -19 33 -35 68 -16 34 -33 62 -38 62 -4 0 -8 9 -8 20 0 23 -21 72 -35 82 -18 13 -32 9 -38 -11z m15 -111 c4 0 8 -9 8 -20 0 -19 45 -119 59 -130 3 -3 15 -22 25 -43 11 -21 29 -49 41 -61 12 -13 25 -31 29 -41 3 -9 15 -19 26 -22 11 -3 20 -13 20 -21 0 -22 120 -142 142 -142 10 0 18 -7 18 -15 0 -9 8 -19 18 -22 9 -4 21 -12 25 -20 4 -7 15 -13 22 -13 8 0 15 -4 15 -8 0 -5 17 -17 38 -28 20 -10 39 -22 42 -25 3 -4 24 -16 48 -28 23 -12 42 -24 42 -26 0 -3 -27 -60 -59 -128 -74 -153 -110 -203 -163 -226 -37 -15 -47 -16 -92 -4 -108 28 -175 71 -300 192 -221 216 -348 379 -396 509 -18 46 -19 59 -8 94 21 72 86 131 211 191 164 79 160 78 171 56 5 -11 13 -19 18 -19z"/>
      <path id="p1BTeArIZm" d="M2531 1143 c-33 -77 -81 -102 -218 -110 l-93 -6 0 -35 0 -35 108 7 c101 6 181 20 192 35 3 3 14 11 25 17 29 16 65 83 65 122 0 30 -2 32 -34 32 -27 0 -36 -5 -45 -27z"/>
    </g>
  </g>
  <g id="l1Ddr9xXtJfhmYqvmNzgEe8" fill="rgb(226,231,231)" transform="none">
    <g>
      <path id="pe7fmMykl" d="M2262 3543 c4 -16 -3 -18 -59 -19 -47 -1 -63 2 -63 12 0 17 -3 17 -121 -1 -266 -40 -521 -170 -709 -360 -74 -75 -83 -88 -68 -98 14 -10 12 -17 -25 -63 -30 -38 -44 -50 -53 -43 -15 12 -38 -18 -88 -118 -52 -104 -80 -183 -107 -303 -21 -93 -24 -128 -23 -305 1 -210 10 -281 35 -279 11 1 21 -20 33 -68 17 -66 17 -70 0 -89 -10 -11 -12 -19 -6 -19 7 0 12 -5 12 -11 0 -24 89 -199 140 -275 105 -157 308 -336 467 -411 32 -16 61 -32 65 -37 4 -6 10 3 14 18 3 15 9 23 13 18 3 -6 32 -20 63 -32 39 -15 55 -25 52 -35 -9 -22 110 -47 291 -60 100 -7 326 8 371 25 74 28 114 99 114 200 0 104 -20 137 -125 204 -161 105 -265 240 -265 346 0 66 42 143 108 197 28 23 47 45 42 48 -17 11 -11 20 24 36 26 12 33 12 29 3 -9 -24 7 -35 30 -20 61 38 200 52 312 31 50 -9 111 -19 136 -22 l46 -5 6 73 c4 41 10 133 13 205 l7 130 -44 13 c-55 16 -116 78 -125 126 -5 26 -1 43 17 72 26 43 56 73 74 73 7 0 18 6 24 14 7 8 27 17 45 20 l34 7 7 112 c3 61 10 159 16 217 5 58 9 133 9 167 l0 61 -62 42 c-154 102 -362 178 -543 200 -49 6 -107 13 -129 16 -33 4 -38 2 -34 -13z m278 -347 c48 -32 89 -90 97 -139 8 -51 -36 -140 -86 -173 -85 -56 -153 -51 -226 17 -56 51 -82 122 -65 173 18 55 64 111 111 135 56 28 114 24 169 -13z m-1150 1 c0 -1 -24 -25 -52 -52 l-53 -50 50 53 c46 48 55 57 55 49z m499 -147 c77 -39 133 -139 112 -202 -39 -116 -150 -184 -244 -149 -66 25 -137 119 -137 181 0 60 69 155 130 179 40 16 98 12 139 -9z m1011 -303 c-114 -104 -123 -111 -104 -82 22 36 65 76 75 70 4 -3 12 2 19 10 7 8 15 15 18 15 4 0 0 -6 -8 -13z m-1375 -252 c51 -29 69 -50 90 -103 23 -57 15 -111 -24 -163 -77 -105 -188 -119 -276 -35 -73 71 -89 122 -59 194 25 62 84 113 154 135 25 8 73 -4 115 -28z m1183 -422 c-21 -2 -57 -2 -80 0 -24 2 -7 4 37 4 44 0 63 -2 43 -4z m-408 -106 c0 -2 -15 -16 -32 -33 l-33 -29 29 33 c28 30 36 37 36 29z m-604 -98 c82 -39 134 -127 120 -202 -9 -50 -44 -97 -101 -135 -43 -30 -56 -33 -97 -29 -88 8 -173 89 -185 174 -9 72 58 170 137 202 40 16 81 13 126 -10z m100 -21 l29 -33 -32 29 c-31 28 -38 36 -30 36 2 0 16 -15 33 -32z m24 -281 c0 -2 -15 -16 -32 -33 l-33 -29 29 33 c28 30 36 37 36 29z m496 -89 l29 -33 -32 29 c-31 28 -38 36 -30 36 2 0 16 -15 33 -32z m-966 -133 c35 -36 62 -65 59 -65 -2 0 -34 29 -69 65 -35 36 -62 65 -59 65 2 0 34 -29 69 -65z m798 -352 c-10 -2 -28 -2 -40 0 -13 2 -5 4 17 4 22 1 32 -1 23 -4z m165 0 c-13 -2 -33 -2 -45 0 -13 2 -3 4 22 4 25 0 35 -2 23 -4z"/>
      <path id="pu8aBpGny" d="M3284 2823 c4 -71 11 -177 16 -238 5 -60 17 -226 27 -367 l17 -258 33 0 c18 0 33 5 33 10 0 6 -7 10 -15 10 -25 0 -17 21 25 61 22 22 40 47 40 56 0 15 2 15 9 4 16 -26 40 -3 57 56 13 46 15 79 10 168 -12 196 -55 356 -138 523 -50 100 -51 102 -86 102 l-35 0 7 -127z m28 82 c-6 -34 -12 -32 -12 6 0 16 4 28 9 25 4 -3 6 -17 3 -31z m5 -122 c-3 -10 -5 -2 -5 17 0 19 2 27 5 18 2 -10 2 -26 0 -35z m10 -150 c-3 -10 -5 -2 -5 17 0 19 2 27 5 18 2 -10 2 -26 0 -35z m180 -305 c-2 -13 -4 -5 -4 17 -1 22 1 32 4 23 2 -10 2 -28 0 -40z"/>
    </g>
  </g>
  <g id="l756ghSbBDtCoIqj0HtwgQd" fill="rgb(255,206,96)" transform="none">
    <g>
      <path id="pi6Vw234V" d="M1950 4469 c-25 -5 -74 -14 -110 -20 -99 -17 -140 -31 -140 -47 0 -17 30 -14 160 13 41 8 112 18 158 22 71 5 82 8 82 24 0 16 -8 19 -52 18 -29 -1 -73 -5 -98 -10z"/>
      <path id="p1F9N9nPgX" d="M2470 4461 c0 -16 9 -21 48 -25 283 -34 605 -145 848 -292 39 -24 77 -44 83 -44 6 0 11 -4 11 -8 0 -8 114 -92 126 -92 3 0 15 -11 26 -25 11 -14 25 -25 33 -25 7 0 15 -7 19 -15 3 -8 15 -15 26 -15 11 0 20 -6 20 -13 0 -23 184 -197 208 -197 18 0 22 -6 22 -31 0 -22 10 -41 35 -66 19 -19 35 -39 35 -44 0 -5 5 -9 10 -9 6 0 10 -7 10 -15 0 -9 7 -18 15 -21 8 -4 15 -12 15 -20 0 -8 5 -14 10 -14 6 0 10 -4 10 -9 0 -18 45 -80 58 -81 6 0 12 -7 12 -15 0 -8 36 -87 79 -176 44 -88 85 -180 92 -204 7 -25 17 -45 21 -45 4 0 8 -10 8 -21 0 -12 9 -51 21 -88 36 -114 39 -127 39 -154 0 -22 5 -27 23 -27 l24 0 -14 63 c-8 34 -18 78 -22 97 -32 140 -169 456 -264 607 -83 134 -227 312 -344 424 -226 219 -539 412 -818 504 -163 54 -231 70 -415 100 -110 18 -110 18 -110 -4z"/>
      <path id="pYDlYnjNb" d="M1590 4388 c-52 -16 -108 -35 -125 -43 -16 -7 -41 -16 -55 -20 -14 -4 -86 -39 -161 -77 -181 -91 -403 -243 -494 -337 l-39 -41 34 0 c28 0 44 9 78 45 24 25 48 45 53 45 5 0 9 7 9 15 0 8 9 15 19 15 11 0 26 8 33 18 7 9 25 23 41 29 15 7 27 17 27 23 0 5 7 10 15 10 8 0 15 5 15 10 0 6 4 10 9 10 15 0 131 71 131 80 0 5 8 10 19 12 37 6 250 113 251 126 0 6 12 12 26 12 35 0 114 21 114 30 0 4 23 10 50 14 45 6 50 9 50 31 0 14 -1 25 -2 24 -2 0 -46 -14 -98 -31z"/>
      <path id="pckKokknL" d="M2063 4243 c-15 -3 -23 -12 -23 -25 0 -18 4 -19 53 -13 88 10 107 16 107 31 0 11 -14 14 -57 13 -32 -1 -68 -4 -80 -6z"/>
      <path id="pTTCNUrRg" d="M2330 4236 c0 -15 19 -21 108 -31 47 -6 52 -5 52 13 0 22 -33 32 -111 32 -36 0 -49 -4 -49 -14z"/>
      <path id="p9hxjr74O" d="M1885 4219 c-22 -5 -62 -14 -90 -20 -74 -16 -249 -72 -253 -81 -2 -4 -14 -8 -26 -8 -28 0 -292 -131 -323 -159 -12 -12 -27 -21 -33 -21 -5 0 -10 -4 -10 -10 0 -5 -7 -10 -15 -10 -9 0 -27 -11 -41 -25 -14 -14 -29 -25 -34 -25 -6 0 -10 -7 -10 -15 0 -8 -9 -15 -20 -15 -11 0 -25 -9 -32 -20 -7 -11 -18 -20 -25 -20 -7 0 -13 -9 -13 -20 0 -14 -7 -20 -23 -20 -31 0 -177 -147 -177 -178 0 -15 -6 -22 -20 -22 -11 0 -24 -8 -27 -17 -4 -10 -15 -24 -25 -31 -10 -7 -18 -22 -18 -33 0 -10 -5 -19 -11 -19 -12 0 -48 -40 -49 -53 0 -4 -9 -17 -20 -29 -11 -12 -20 -32 -20 -45 0 -14 -6 -23 -15 -23 -8 0 -15 -7 -15 -15 0 -8 -4 -15 -9 -15 -5 0 -14 -15 -22 -32 -7 -18 -16 -35 -20 -38 -30 -23 -158 -355 -159 -412 0 -16 -4 -28 -10 -28 -5 0 -10 -18 -10 -40 0 -57 24 -52 40 8 67 253 153 434 320 676 70 101 257 296 368 384 95 75 244 168 367 228 177 86 315 131 538 174 37 8 57 16 57 26 0 16 -51 18 -115 3z"/>
      <path id="pJqDvTsSl" d="M2530 4215 c0 -8 2 -15 4 -15 13 0 215 -42 236 -49 14 -5 45 -14 70 -21 194 -56 439 -185 645 -341 64 -48 250 -234 311 -310 185 -232 312 -490 383 -778 12 -46 21 -85 21 -87 0 -2 7 -4 16 -4 17 0 17 1 -2 123 -3 20 -10 37 -15 37 -5 0 -9 12 -9 28 0 34 -67 226 -80 230 -6 2 -10 12 -10 22 0 24 -21 70 -32 70 -4 0 -8 7 -8 15 0 20 -49 119 -61 123 -5 2 -9 10 -9 18 0 8 -4 14 -9 14 -5 0 -12 11 -15 25 -4 14 -11 25 -16 25 -6 0 -10 7 -10 15 0 8 -4 15 -10 15 -5 0 -10 7 -10 15 0 9 -7 18 -15 21 -8 4 -15 12 -15 20 0 8 -4 14 -10 14 -5 0 -10 7 -10 15 0 8 -9 20 -20 27 -11 7 -20 19 -20 26 0 7 -7 15 -15 18 -8 4 -15 11 -15 18 0 18 -73 86 -93 86 -9 0 -17 7 -17 16 0 22 -110 134 -132 134 -10 0 -18 6 -18 13 0 11 -62 67 -75 67 -3 0 -18 11 -33 25 -15 14 -37 28 -49 31 -13 4 -23 10 -23 15 0 5 -7 9 -15 9 -8 0 -15 4 -15 8 0 11 -74 52 -93 52 -8 0 -17 7 -21 15 -3 8 -15 15 -26 15 -11 0 -20 4 -20 8 0 11 -110 61 -151 69 -16 3 -29 9 -29 14 0 5 -13 9 -30 9 -16 0 -30 4 -30 8 0 4 -21 14 -47 21 -27 7 -59 17 -73 21 -14 5 -50 14 -80 20 -30 7 -71 16 -91 21 -57 14 -109 12 -109 -6z"/>
      <path id="pRI8Lfrex" d="M1775 4009 c-141 -34 -225 -64 -360 -129 -148 -72 -323 -186 -363 -237 -51 -66 -112 -165 -112 -185 0 -36 35 -19 60 30 14 26 28 49 33 50 4 2 7 10 7 18 0 8 5 14 10 14 6 0 10 9 10 20 0 11 6 20 13 20 8 0 22 10 33 21 10 12 49 41 87 66 37 24 67 48 67 53 0 6 6 10 14 10 16 0 139 70 144 82 2 5 12 8 22 8 10 0 25 6 32 13 7 7 29 18 48 24 19 6 69 23 110 37 103 36 128 43 183 51 38 5 47 10 47 26 0 21 -19 23 -85 8z"/>
      <path id="p0Cp7m1HY" d="M1890 4003 c0 -15 9 -22 32 -27 35 -7 114 -63 121 -86 3 -8 14 -39 26 -68 11 -30 23 -85 27 -123 6 -58 9 -69 25 -69 22 0 22 -3 8 97 -25 187 -84 271 -205 290 -29 5 -34 3 -34 -14z"/>
      <path id="pcY6QiOX" d="M2376 3980 c-47 -24 -67 -50 -83 -110 -17 -61 -16 -70 6 -70 14 0 21 13 31 60 8 38 18 60 26 60 8 0 14 7 14 15 0 9 9 15 24 15 37 0 56 10 56 31 0 24 -24 24 -74 -1z"/>
      <path id="p6pXcZvwz" d="M2620 3981 c0 -14 8 -22 28 -27 46 -10 202 -65 269 -95 36 -16 71 -29 79 -29 8 0 14 -4 14 -10 0 -5 9 -10 20 -10 11 0 20 -4 20 -9 0 -5 10 -13 22 -17 12 -3 26 -11 32 -16 37 -31 200 -128 217 -128 14 0 19 -7 19 -25 0 -14 6 -28 13 -31 8 -3 20 -20 27 -39 8 -19 17 -35 22 -35 4 0 8 -18 8 -40 0 -39 -38 -132 -60 -145 -5 -3 -10 -14 -10 -24 0 -10 -8 -21 -19 -24 -17 -4 -19 5 -26 119 -6 101 -11 128 -27 149 -11 14 -26 25 -34 25 -8 0 -14 5 -14 11 0 7 -27 10 -84 8 -104 -5 -139 -25 -144 -82 -3 -36 -2 -37 29 -37 18 0 41 8 52 18 20 17 20 16 14 -103 -17 -326 -47 -932 -47 -947 0 -16 14 -18 151 -18 l152 0 -7 73 c-3 39 -11 133 -16 207 -5 74 -12 160 -16 190 l-5 55 21 -25 21 -25 -5 50 c-3 28 -8 65 -12 83 -5 26 -3 32 10 32 9 0 19 7 22 15 4 8 11 15 16 15 6 0 24 14 40 30 15 17 33 30 38 30 6 0 10 4 10 9 0 5 8 11 18 15 9 3 35 20 57 36 89 68 123 60 228 -47 39 -40 76 -73 84 -73 7 0 13 -9 13 -20 0 -22 31 -93 43 -98 4 -2 7 -11 7 -20 0 -23 23 -82 32 -82 4 0 8 -8 8 -17 0 -19 22 -86 31 -93 3 -3 9 -18 12 -35 3 -16 11 -48 17 -70 7 -22 14 -55 17 -72 4 -26 10 -33 28 -33 25 0 26 -10 -7 115 -35 129 -122 359 -164 430 -33 57 -150 167 -202 190 -38 16 -50 17 -87 7 -51 -14 -138 -73 -265 -181 -38 -32 -50 -27 -50 23 0 21 17 50 59 102 82 99 102 143 103 218 0 73 -17 116 -71 178 -92 104 -474 306 -661 349 -19 4 -47 11 -62 15 -24 5 -28 3 -28 -15z"/>
      <path id="pSuQRTLfP" d="M671 3829 l-35 -34 28 -3 c36 -4 48 8 44 44 l-3 28 -34 -35z"/>
      <path id="pHPbKQKAV" d="M2277 3768 c-3 -13 -9 -49 -12 -80 -7 -53 -6 -58 12 -58 16 0 22 9 27 46 10 76 8 114 -8 114 -8 0 -16 -10 -19 -22z"/>
      <path id="p8bXEO5Mj" d="M575 3728 c-152 -167 -305 -412 -384 -615 l-21 -53 25 0 c20 0 25 5 25 25 0 14 4 25 10 25 5 0 15 19 22 43 7 23 18 48 26 56 7 7 16 26 19 42 3 16 9 29 14 29 5 0 9 7 9 15 0 8 4 15 9 15 5 0 13 10 17 22 3 12 13 28 20 36 8 7 14 24 14 37 0 14 7 25 20 28 14 3 20 14 20 31 0 17 5 26 16 26 9 0 18 9 21 20 3 11 9 20 14 20 5 0 9 6 9 14 0 8 7 16 15 20 8 3 15 17 15 31 0 18 5 25 20 25 11 0 20 4 20 9 0 5 18 27 41 49 33 33 40 46 37 72 l-3 32 -50 -54z"/>
      <path id="p17Ga7x9hm" d="M2050 3549 c-30 -5 -88 -16 -127 -25 -58 -14 -73 -21 -73 -35 0 -23 7 -23 97 1 40 10 100 22 133 26 50 5 60 10 60 25 0 21 -5 21 -90 8z"/>
      <path id="p17Ht5QViV" d="M2262 3543 c2 -10 13 -19 26 -21 17 -3 22 2 22 17 0 16 -6 21 -26 21 -19 0 -25 -5 -22 -17z"/>
      <path id="ptAaz4eE0" d="M2370 3535 c0 -9 14 -16 38 -20 76 -12 204 -46 282 -74 l80 -30 0 24 c0 22 -10 27 -97 55 -167 54 -303 74 -303 45z"/>
      <path id="p1FKRFjTOO" d="M1748 3473 c-11 -3 -18 -14 -18 -29 l0 -24 47 18 c57 21 69 42 21 41 -18 -1 -41 -3 -50 -6z"/>
      <path id="pEvhWR6MH" d="M2980 3405 l0 -55 35 0 35 0 0 55 0 55 -35 0 -35 0 0 -55z"/>
      <path id="pJmkeqMJ0" d="M1640 3405 c0 -29 2 -30 40 -10 40 21 38 35 -5 35 -31 0 -35 -3 -35 -25z"/>
      <path id="p2resC8jX" d="M940 3403 c0 -25 29 -69 86 -130 65 -71 216 -203 231 -203 6 0 21 14 33 30 l21 30 -28 0 c-16 0 -34 -5 -41 -12 -9 -9 -12 -8 -12 8 0 27 -50 74 -78 74 -15 0 -22 6 -22 19 0 10 -21 39 -47 63 -47 45 -57 56 -91 110 -19 31 -52 38 -52 11z"/>
      <path id="p5L1HAONY" d="M2820 3392 c0 -5 21 -20 48 -35 88 -48 132 -85 132 -112 0 -18 5 -25 20 -25 18 0 20 7 20 54 l0 53 -40 7 c-22 3 -40 11 -40 16 0 6 -11 10 -25 10 -15 0 -25 6 -25 14 0 8 -7 17 -16 20 -23 9 -74 7 -74 -2z"/>
      <path id="p8bqejA3k" d="M1550 3365 c0 -9 -9 -15 -25 -15 -16 0 -25 -6 -25 -15 0 -8 -9 -15 -20 -15 -11 0 -20 -4 -20 -9 0 -5 -9 -11 -20 -14 -12 -3 -20 -14 -20 -26 0 -16 -6 -21 -25 -21 -28 0 -39 -16 -33 -49 3 -18 12 -13 78 40 41 33 99 74 128 92 28 17 52 35 52 39 0 5 -16 8 -35 8 -24 0 -35 -5 -35 -15z"/>
      <path id="pgXIzBabd" d="M716 3122 c-107 -55 -185 -198 -250 -454 l-23 -88 22 0 c18 0 23 10 35 62 7 34 26 97 42 141 15 44 28 92 28 108 0 19 5 29 15 29 8 0 15 9 15 19 0 10 7 21 15 25 8 3 15 12 15 20 0 7 7 16 15 20 8 3 15 12 15 21 0 8 7 15 15 15 9 0 18 7 21 15 4 8 13 15 20 15 8 0 17 7 20 15 4 8 15 15 25 15 12 0 19 7 19 20 0 24 -22 25 -64 2z"/>
      <path id="pgZbMqjoy" d="M820 3120 c0 -11 5 -20 11 -20 20 0 154 -66 220 -109 64 -41 64 -42 61 -81 -3 -30 -8 -40 -22 -40 -21 0 -30 -19 -30 -61 0 -44 17 -35 49 29 17 31 39 70 50 86 11 17 18 33 15 38 -11 18 -150 102 -229 139 -96 44 -125 49 -125 19z"/>
      <path id="pFNHHF3nj" d="M2996 3118 c-11 -42 -7 -58 14 -58 17 0 20 7 20 40 0 45 -23 57 -34 18z"/>
      <path id="pjf9EzQ7j" d="M130 2948 c-54 -171 -52 -158 -26 -158 24 0 25 1 42 90 4 19 10 37 13 40 11 9 31 76 31 103 0 16 -6 27 -13 27 -8 0 -27 -40 -47 -102z"/>
      <path id="pEaLLHjzd" d="M2986 3008 c-12 -45 -7 -68 14 -68 17 0 20 7 20 45 0 49 -23 64 -34 23z"/>
      <path id="p3JJRwR30" d="M2976 2848 c-12 -45 -7 -68 14 -68 17 0 20 7 20 45 0 49 -23 64 -34 23z"/>
      <path id="p13ZTEAJhp" d="M76 2758 c-7 -24 -35 -177 -36 -190 0 -5 9 -8 19 -8 16 0 21 9 26 48 3 26 10 63 15 83 14 52 12 89 -4 89 -7 0 -17 -10 -20 -22z"/>
      <path id="pkWyEWM1Z" d="M1020 2731 c0 -16 -5 -31 -10 -33 -14 -4 -57 -172 -66 -255 -5 -53 -4 -63 9 -63 11 0 18 13 22 38 12 72 48 217 71 279 l23 63 -25 0 c-20 0 -24 -5 -24 -29z"/>
      <path id="p197PGfdUY" d="M2840 2691 l-73 -69 6 -56 c6 -60 32 -113 66 -134 19 -11 21 -10 21 17 0 17 -6 34 -13 38 -17 11 -37 58 -37 88 0 15 16 39 45 66 25 24 45 51 45 61 0 10 7 18 15 18 11 0 15 -12 15 -50 l0 -50 35 0 35 0 0 50 c0 47 -2 50 -25 50 -18 0 -25 5 -25 20 0 37 -36 21 -110 -49z"/>
      <path id="pk90vLXv0" d="M3444 2653 c13 -38 31 -103 40 -145 12 -53 22 -78 32 -78 8 0 14 10 14 22 0 37 -23 138 -32 138 -4 0 -8 12 -8 26 0 15 -5 44 -12 65 -9 31 -16 39 -34 39 l-23 0 23 -67z"/>
      <path id="piYnRByxD" d="M287 2623 c-4 -27 -9 -69 -13 -95 -5 -40 -4 -48 9 -48 11 0 19 17 27 58 6 31 15 74 20 95 7 34 6 37 -15 37 -19 0 -23 -7 -28 -47z"/>
      <path id="pAPcWTr1C" d="M4430 2608 c0 -52 11 -78 31 -78 22 0 23 6 8 66 -14 53 -39 60 -39 12z"/>
      <path id="pLzjmch1e" d="M4200 2579 c0 -29 25 -89 37 -89 14 0 18 54 7 84 -7 18 -44 22 -44 5z"/>
      <path id="ptjX878lA" d="M2920 2525 c0 -45 0 -45 35 -45 35 0 35 0 35 45 0 45 0 45 -35 45 -35 0 -35 0 -35 -45z"/>
      <path id="p1BB4qYxwV" d="M432 2521 c-16 -52 -15 -61 7 -61 20 0 31 25 31 73 0 41 -25 33 -38 -12z"/>
      <path id="p3O7J5FTv" d="M36 2523 c-2 -16 -8 -49 -11 -75 -6 -43 -4 -48 13 -48 15 0 21 9 26 46 10 75 8 104 -8 104 -8 0 -17 -12 -20 -27z"/>
      <path id="p14ce3o7ER" d="M4054 2488 c3 -24 9 -67 12 -95 4 -34 11 -53 19 -53 22 0 27 56 11 120 -9 34 -16 64 -16 66 0 2 -7 4 -16 4 -13 0 -15 -8 -10 -42z"/>
      <path id="pcbOSeOzF" d="M416 2423 c-19 -98 -19 -103 2 -103 15 0 21 9 26 38 10 62 7 92 -8 92 -8 0 -17 -12 -20 -27z"/>
      <path id="pIg85C8zd" d="M4225 2245 c0 -182 2 -205 16 -205 22 0 29 46 29 196 0 157 -8 214 -29 214 -14 0 -16 -23 -16 -205z"/>
      <path id="pAT7HQEal" d="M2890 2416 c0 -8 11 -17 25 -20 14 -4 25 -13 25 -21 0 -8 7 -15 15 -15 10 0 15 11 15 35 0 34 -1 35 -40 35 -28 0 -40 -4 -40 -14z"/>
      <path id="p16EoV8pyC" d="M3500 2408 c0 -30 13 -58 26 -58 9 0 14 12 14 35 0 28 -4 35 -20 35 -11 0 -20 -6 -20 -12z"/>
      <path id="pYw6wElHl" d="M260 2340 c0 -45 23 -57 34 -17 11 41 7 57 -14 57 -17 0 -20 -7 -20 -40z"/>
      <path id="p4EqghNN9" d="M930 2255 c0 -78 2 -85 20 -85 18 0 20 7 20 85 0 78 -2 85 -20 85 -18 0 -20 -7 -20 -85z"/>
      <path id="pix9u6pNZ" d="M4045 2258 c-12 -40 -26 -60 -56 -82 -21 -17 -39 -33 -39 -38 0 -4 -11 -8 -24 -8 -37 0 -56 -10 -56 -31 0 -23 13 -24 75 -3 61 21 118 78 139 139 21 62 20 75 -3 75 -14 0 -23 -13 -36 -52z"/>
      <path id="p4CldKliq" d="M395 2270 c-4 -16 1 -56 9 -90 9 -34 16 -64 16 -66 0 -2 7 -4 16 -4 13 0 15 8 10 43 -3 23 -9 66 -12 95 -7 58 -28 71 -39 22z"/>
      <path id="pWhRgJfmH" d="M3506 2208 c-10 -38 -7 -48 14 -48 16 0 20 7 20 35 0 40 -24 49 -34 13z"/>
      <path id="p8PhGDKUs" d="M260 2165 c0 -28 4 -35 20 -35 21 0 24 10 14 48 -10 36 -34 27 -34 -13z"/>
      <path id="p16Zg3LWUC" d="M3478 2125 c-14 -31 -12 -32 40 -41 38 -6 42 -5 42 15 0 16 -6 21 -25 21 -16 0 -25 6 -25 15 0 24 -19 18 -32 -10z"/>
      <path id="p181h4dF4W" d="M944 2078 c3 -29 6 -68 6 -85 0 -26 4 -33 19 -33 27 0 31 10 21 56 -5 21 -12 56 -15 77 -4 25 -11 37 -22 37 -13 0 -15 -8 -9 -52z"/>
      <path id="pTUd5vQE4" d="M3620 2096 c0 -18 31 -26 105 -26 74 0 105 8 105 26 0 11 -22 14 -105 14 -83 0 -105 -3 -105 -14z"/>
      <path id="psVQN7uap" d="M24 2053 c12 -85 17 -103 32 -103 16 0 18 29 8 104 -5 37 -11 46 -26 46 -18 0 -20 -5 -14 -47z"/>
      <path id="ps10jOglP" d="M436 2053 c8 -26 21 -57 30 -70 18 -28 72 -63 97 -63 28 0 20 36 -11 49 -30 13 -82 84 -82 113 0 12 -8 18 -24 18 -24 0 -24 0 -10 -47z"/>
      <path id="p1GYJtvukm" d="M2545 2065 c-5 -2 -27 -6 -47 -10 -24 -4 -38 -11 -38 -20 0 -17 15 -18 84 -9 36 5 46 11 46 25 0 18 -18 23 -45 14z"/>
      <path id="phe4rjL2u" d="M2730 2051 c0 -16 6 -21 24 -21 51 0 124 -23 119 -37 -3 -7 -11 -13 -19 -13 -8 0 -14 -4 -14 -10 0 -5 -4 -10 -10 -10 -15 0 -50 -33 -50 -47 0 -7 -4 -13 -10 -13 -5 0 -10 -11 -10 -25 0 -16 -6 -25 -15 -25 -10 0 -15 -10 -15 -30 0 -16 -4 -30 -10 -30 -5 0 -10 -16 -10 -35 0 -33 2 -35 35 -35 32 0 35 2 35 30 0 17 5 30 10 30 6 0 10 11 10 25 0 16 6 25 15 25 8 0 15 4 15 10 0 13 57 70 70 70 5 0 10 5 10 10 0 6 6 10 14 10 9 0 15 18 20 53 9 76 8 87 -9 87 -8 0 -15 -7 -15 -15 0 -17 -11 -18 -60 -6 -19 5 -56 12 -82 16 -44 6 -48 4 -48 -14z"/>
      <path id="phFiz56sK" d="M270 1998 c0 -25 23 -154 41 -228 6 -25 13 -57 16 -72 3 -16 9 -28 14 -28 5 0 9 -12 9 -26 0 -33 41 -154 52 -154 4 0 8 -8 8 -19 0 -25 49 -131 61 -131 5 0 9 -8 9 -18 0 -17 36 -92 49 -102 3 -3 15 -22 25 -42 11 -21 23 -38 28 -38 4 0 8 -6 8 -13 0 -7 9 -23 20 -35 11 -12 20 -26 20 -31 0 -6 9 -16 20 -23 11 -7 20 -18 20 -25 0 -7 5 -13 10 -13 6 0 10 -6 10 -13 0 -16 52 -67 68 -67 7 0 12 -8 12 -18 0 -22 62 -82 85 -82 8 0 15 -8 15 -18 0 -25 31 -52 58 -52 15 0 22 -6 22 -19 0 -20 62 -81 83 -81 7 0 18 -9 25 -20 7 -11 17 -20 23 -20 5 0 19 -9 31 -20 31 -29 147 -96 268 -156 151 -75 361 -143 498 -161 32 -4 42 -2 42 9 0 15 -52 38 -86 38 -32 0 -241 68 -342 111 -135 57 -299 152 -407 234 -49 37 -183 151 -210 179 -193 201 -327 400 -428 636 -65 153 -89 238 -138 488 -7 34 -15 52 -25 52 -8 0 -14 -10 -14 -22z"/>
      <path id="pZfNKRKg5" d="M2434 1975 c8 -19 31 -62 50 -95 20 -34 36 -63 36 -65 0 -2 52 -91 116 -197 135 -226 255 -408 373 -568 139 -189 189 -234 288 -259 59 -14 111 -4 176 36 79 49 233 230 332 390 16 26 51 84 78 128 48 77 97 189 97 220 0 8 -9 15 -20 15 -15 0 -21 -9 -26 -40 -4 -22 -10 -40 -14 -40 -4 0 -13 -18 -20 -40 -7 -22 -17 -40 -21 -40 -4 0 -11 -10 -15 -22 -4 -13 -10 -25 -14 -28 -16 -12 -60 -91 -60 -110 0 -11 -7 -20 -15 -20 -8 0 -15 -5 -15 -10 0 -6 -9 -20 -20 -32 -11 -12 -20 -28 -20 -35 0 -7 -4 -13 -10 -13 -5 0 -10 -6 -10 -14 0 -8 -7 -16 -15 -20 -8 -3 -15 -10 -15 -15 0 -6 -20 -32 -45 -58 -33 -36 -45 -56 -45 -80 0 -28 -3 -32 -32 -35 -23 -2 -36 -10 -43 -25 -5 -13 -16 -23 -23 -23 -7 0 -31 -12 -54 -26 -55 -35 -120 -36 -174 -2 -54 35 -62 47 -57 91 4 31 9 37 29 37 19 0 24 5 24 25 0 18 5 25 20 25 15 0 20 7 20 25 0 18 5 25 20 25 16 0 20 7 20 35 0 31 3 35 25 35 16 0 25 6 25 15 0 8 5 15 10 15 6 0 10 11 10 25 0 16 6 25 15 25 9 0 15 9 15 25 0 14 6 25 13 25 18 0 47 63 47 100 0 27 -3 30 -33 30 -28 0 -36 -5 -50 -35 -9 -20 -17 -45 -17 -55 0 -11 -7 -20 -15 -20 -9 0 -15 -9 -15 -25 0 -16 -6 -25 -15 -25 -8 0 -15 -7 -15 -15 0 -8 -4 -15 -10 -15 -5 0 -10 -16 -10 -35 0 -31 -3 -35 -25 -35 -20 0 -25 -5 -25 -25 0 -18 -5 -25 -20 -25 -15 0 -20 -7 -20 -25 0 -18 -5 -25 -20 -25 -16 0 -20 -7 -21 -32 -1 -18 -3 -25 -6 -15 -5 20 -73 25 -74 5 0 -7 -4 -3 -9 10 -5 12 -16 25 -25 28 -8 4 -15 12 -15 20 0 8 -4 14 -10 14 -5 0 -10 6 -10 14 0 8 -8 21 -19 28 -10 7 -21 23 -25 36 -7 19 -4 22 23 22 29 0 31 3 31 35 0 33 -2 35 -35 35 -32 0 -35 -3 -35 -29 0 -24 -3 -28 -20 -24 -12 3 -20 14 -20 27 0 12 -8 31 -18 42 -10 10 -21 27 -25 37 -3 9 -11 17 -17 17 -5 0 -10 7 -10 15 0 8 5 15 10 15 6 0 10 16 10 35 0 24 -5 35 -15 35 -8 0 -15 9 -15 20 0 11 -7 20 -15 20 -9 0 -15 9 -15 25 0 22 -4 25 -35 25 -19 0 -35 5 -35 10 0 6 -10 15 -22 20 -20 8 -18 9 15 9 36 1 37 2 37 36 0 33 -2 35 -35 35 -25 0 -35 -4 -35 -16 0 -13 -2 -13 -14 -2 -7 8 -17 24 -20 36 -4 12 -12 22 -17 22 -5 0 -9 7 -9 15 0 8 -7 15 -15 15 -9 0 -15 9 -15 24 0 14 -6 31 -12 38 -7 7 -21 30 -30 51 -10 20 -22 37 -27 37 -4 0 -11 13 -14 29 -3 16 -12 35 -19 42 -7 8 -22 33 -32 57 -15 32 -24 42 -43 42 -23 0 -23 -1 -9 -35z"/>
      <path id="pTzn3DmdO" d="M2310 1970 l-35 -29 32 -1 c44 0 63 -9 63 -29 0 -10 8 -26 18 -37 9 -10 37 -61 62 -112 24 -50 47 -92 51 -92 3 0 9 -13 12 -29 3 -16 13 -36 22 -44 8 -9 15 -20 15 -25 0 -17 152 -312 161 -312 5 0 9 -9 9 -20 0 -11 5 -20 10 -20 6 0 10 -9 10 -20 0 -11 5 -20 10 -20 6 0 10 -9 10 -20 0 -11 4 -20 9 -20 5 0 12 -16 15 -36 4 -19 14 -38 22 -41 7 -3 14 -12 14 -20 0 -19 60 -143 69 -143 4 0 12 -17 18 -37 33 -111 56 -163 74 -163 11 0 19 5 19 11 0 41 -75 204 -293 639 -277 550 -331 650 -356 650 -4 0 -22 -13 -41 -30z"/>
      <path id="ptLY61M74" d="M3352 1963 c3 -35 6 -38 36 -41 28 -3 32 -7 32 -33 0 -27 3 -29 35 -29 34 0 35 2 35 36 0 33 2 36 23 29 27 -8 68 -18 172 -40 44 -9 88 -21 97 -26 10 -5 26 -9 35 -9 10 0 33 -9 51 -20 18 -11 39 -20 47 -20 8 0 15 -9 15 -19 0 -11 5 -23 10 -26 6 -3 10 -44 10 -91 0 -67 3 -84 15 -84 20 0 29 58 21 138 -6 61 -10 70 -44 103 -37 35 -81 53 -192 78 -45 10 -186 42 -268 61 -23 6 -55 10 -72 10 -16 0 -32 5 -35 10 -14 22 -26 8 -23 -27z"/>
      <path id="p3i3lZ0Ws" d="M843 1983 c-26 -5 -32 -43 -7 -43 37 0 104 23 104 36 0 14 -45 17 -97 7z"/>
      <path id="pk2qRss3e" d="M4212 1951 c-16 -52 -15 -61 7 -61 22 0 31 19 31 66 0 47 -24 44 -38 -5z"/>
      <path id="pBcPKvko6" d="M693 1963 c-26 -5 -33 -43 -8 -43 41 0 115 23 115 36 0 14 -53 17 -107 7z"/>
      <path id="plSZ7mPix" d="M4435 1933 c-17 -110 -36 -195 -66 -289 -22 -73 -25 -114 -6 -114 22 0 52 97 92 299 30 150 30 141 5 141 -14 0 -20 -9 -25 -37z"/>
      <path id="pkeMduLOB" d="M40 1926 c0 -16 16 -99 32 -163 6 -25 16 -43 24 -43 16 0 18 37 4 89 -5 20 -12 57 -15 84 -5 38 -10 47 -26 47 -10 0 -19 -6 -19 -14z"/>
      <path id="pq6kVxFsz" d="M2248 1913 c-24 -27 -46 -75 -53 -116 -6 -33 -5 -37 14 -37 17 0 21 8 27 50 4 32 11 50 20 50 9 0 14 12 14 35 0 40 -1 41 -22 18z"/>
      <path id="pIedLPhQJ" d="M1550 1907 c-19 -6 -55 -32 -80 -57 -94 -93 -93 -217 1 -312 95 -95 230 -91 321 10 77 86 77 209 0 294 -63 69 -152 93 -242 65z"/>
      <path id="pk0xIMTRW" d="M4200 1866 c0 -29 -79 -293 -106 -354 -122 -273 -231 -442 -413 -634 l-64 -68 31 0 c42 0 82 35 82 72 0 23 4 28 25 28 15 0 28 7 32 17 4 10 20 28 35 41 15 13 28 30 28 38 0 8 5 14 10 14 6 0 10 6 10 13 0 7 9 18 20 25 11 7 20 23 20 37 0 16 6 25 16 25 9 0 21 14 27 30 6 17 15 30 19 30 4 0 8 7 8 15 0 8 4 15 8 15 11 0 32 46 32 70 0 11 6 20 14 20 14 0 73 121 83 171 3 16 9 29 14 29 5 0 9 14 9 30 0 17 5 30 10 30 6 0 10 14 10 30 0 17 5 30 10 30 6 0 10 16 10 35 0 19 4 35 9 35 9 0 41 122 41 158 0 13 -6 22 -15 22 -8 0 -15 -2 -15 -4z"/>
      <path id="pANApqpNm" d="M3470 1815 c0 -33 2 -35 35 -35 33 0 35 2 35 35 0 33 -2 35 -35 35 -33 0 -35 -2 -35 -35z"/>
      <path id="pqIR5DeDs" d="M1015 1812 c-6 -5 -37 -19 -70 -32 -103 -40 -228 -109 -267 -147 -40 -39 -64 -83 -74 -132 -6 -26 -3 -31 13 -31 16 0 23 11 33 44 7 25 18 47 26 50 8 3 14 14 14 25 0 13 8 21 23 23 12 2 26 13 32 26 5 12 17 22 26 22 9 0 59 20 110 44 134 62 134 62 149 26 7 -16 19 -30 26 -30 9 0 14 -12 14 -35 0 -28 4 -35 20 -35 16 0 20 -7 20 -35 0 -24 5 -35 15 -35 9 0 15 -9 15 -25 0 -14 5 -25 10 -25 6 0 10 -7 10 -15 0 -8 7 -15 15 -15 8 0 15 -9 15 -20 0 -13 7 -20 20 -20 15 0 20 -7 20 -25 0 -28 16 -39 50 -33 19 3 17 7 -21 53 -66 78 -129 182 -176 285 -43 96 -51 107 -68 92z"/>
      <path id="p1BX7DRLBn" d="M3490 1735 c0 -33 2 -35 35 -35 33 0 35 2 35 35 0 33 -2 35 -35 35 -33 0 -35 -2 -35 -35z"/>
      <path id="p17y9Z3mE8" d="M2194 1693 c9 -51 48 -130 85 -173 l30 -35 1 38 c0 30 -3 37 -20 37 -15 0 -20 7 -20 25 0 28 -20 75 -32 75 -4 0 -8 16 -8 35 0 29 -4 35 -21 35 -19 0 -21 -4 -15 -37z"/>
      <path id="phKllVi9P" d="M105 1633 c33 -111 54 -172 76 -220 10 -24 19 -46 19 -49 0 -16 90 -190 146 -281 70 -115 185 -271 238 -322 l36 -35 0 36 c0 28 -7 42 -33 65 -18 16 -36 37 -40 46 -3 9 -11 17 -17 17 -5 0 -10 7 -10 15 0 8 -9 20 -20 27 -11 7 -20 18 -20 25 0 7 -4 13 -10 13 -5 0 -10 5 -10 10 0 19 -52 90 -66 90 -8 0 -14 10 -14 24 0 14 -7 31 -15 40 -8 8 -15 19 -15 25 0 6 -4 11 -10 11 -5 0 -10 6 -10 13 0 21 -30 77 -41 77 -5 0 -9 9 -9 20 0 11 -4 20 -8 20 -4 0 -13 20 -20 45 -7 25 -16 45 -22 45 -5 0 -10 11 -10 25 0 14 -4 25 -10 25 -5 0 -10 5 -10 12 0 23 -35 128 -42 128 -4 0 -8 14 -8 30 0 17 -4 30 -10 30 -5 0 -10 16 -10 35 0 30 -3 35 -24 35 l-24 0 23 -77z"/>
      <path id="p1FvI9IXWK" d="M3486 1579 c-4 -34 -14 -68 -22 -76 -8 -8 -14 -30 -14 -49 0 -32 2 -34 34 -34 36 0 46 12 46 55 0 13 4 25 10 27 5 2 12 33 16 71 l7 67 -35 0 -35 0 -7 -61z"/>
      <path id="pqaYg864M" d="M4306 1457 c-9 -23 -16 -55 -16 -70 0 -15 -6 -27 -12 -27 -14 0 -128 -217 -128 -244 0 -9 -6 -16 -13 -16 -8 0 -19 -10 -25 -22 -17 -32 -34 -59 -54 -82 -10 -11 -18 -28 -18 -38 0 -10 -7 -18 -15 -18 -8 0 -15 -6 -15 -13 0 -7 -9 -18 -20 -25 -11 -7 -20 -21 -20 -31 0 -10 -9 -21 -20 -24 -13 -3 -20 -14 -20 -30 0 -17 -6 -27 -19 -29 -11 -2 -76 -58 -145 -125 -70 -68 -129 -123 -132 -123 -12 0 -74 -56 -74 -67 0 -7 -9 -13 -20 -13 -11 0 -20 -4 -20 -10 0 -5 -7 -10 -15 -10 -8 0 -15 -4 -15 -10 0 -5 -7 -10 -15 -10 -8 0 -15 -4 -15 -10 0 -5 -7 -10 -15 -10 -8 0 -15 -4 -15 -10 0 -5 -6 -10 -14 -10 -8 0 -21 -6 -28 -13 -15 -14 -236 -124 -323 -161 -149 -62 -424 -136 -508 -136 -51 0 -77 -11 -77 -31 0 -23 -6 -22 100 -4 205 35 253 46 415 100 300 99 635 312 861 547 206 214 339 414 465 700 44 100 47 118 20 118 -12 0 -23 -14 -35 -43z"/>
      <path id="p4Ayy4kuk" d="M2365 1434 c22 -19 63 -49 92 -65 29 -17 68 -49 88 -71 32 -38 35 -47 35 -102 -1 -34 -7 -72 -15 -86 -20 -35 -19 -40 10 -40 19 0 26 7 34 38 14 47 14 142 1 142 -5 0 -10 14 -10 30 0 17 -3 30 -8 30 -4 0 -12 10 -17 22 -6 12 -19 26 -30 32 -10 6 -25 17 -33 24 -7 6 -24 12 -38 12 -15 0 -24 6 -24 15 0 8 -8 15 -19 15 -10 0 -21 9 -24 20 -4 16 -13 20 -44 20 l-38 -1 40 -35z"/>
      <path id="p8C9HDcFN" d="M619 1379 c51 -132 177 -295 397 -510 129 -125 205 -172 327 -199 123 -28 182 20 286 233 93 192 92 188 37 210 -44 18 -191 113 -253 163 l-33 27 0 -32 c0 -26 4 -31 25 -31 18 0 25 -5 25 -20 0 -13 7 -20 20 -20 11 0 20 -7 20 -15 0 -8 7 -15 15 -15 8 0 15 -4 15 -10 0 -5 11 -10 25 -10 16 0 25 -6 25 -15 0 -10 11 -15 35 -15 28 0 35 -4 35 -20 0 -13 7 -20 20 -20 11 0 20 -2 20 -5 0 -3 -9 -23 -20 -45 -11 -22 -20 -46 -20 -55 0 -9 -7 -23 -15 -31 -8 -9 -15 -24 -15 -35 0 -10 -4 -19 -10 -19 -5 0 -10 -9 -10 -20 0 -11 -4 -20 -10 -20 -5 0 -10 -7 -10 -15 0 -8 -4 -15 -10 -15 -5 0 -12 -11 -16 -25 -3 -14 -10 -25 -15 -25 -5 0 -9 -8 -9 -17 0 -27 -93 -54 -145 -44 -50 11 -139 44 -143 54 -2 4 -10 7 -18 7 -8 0 -14 5 -14 10 0 6 -4 10 -8 10 -5 0 -71 63 -147 140 -96 97 -146 140 -161 140 -18 0 -23 6 -26 33 -2 22 -10 35 -25 42 -13 5 -23 17 -23 27 0 9 -8 23 -18 30 -9 7 -23 25 -29 41 -7 15 -19 27 -28 27 -9 0 -15 9 -15 24 0 14 -6 31 -13 38 -7 7 -19 32 -26 56 -11 33 -19 42 -38 42 l-23 0 19 -51z"/>
      <path id="pTkGNfMFp" d="M3040 1125 c0 -33 2 -35 35 -35 33 0 35 2 35 35 0 33 -2 35 -35 35 -33 0 -35 -2 -35 -35z"/>
      <path id="pClJkQTE5" d="M2508 1039 c-24 -18 -68 -29 -170 -44 -49 -7 -53 -35 -5 -35 58 1 162 19 165 30 2 5 12 10 23 10 14 0 19 7 19 30 0 35 2 35 -32 9z"/>
      <path id="pOewUCNZ2" d="M1831 1018 c-10 -26 -30 -95 -60 -214 -15 -57 -14 -64 9 -64 14 0 21 9 25 38 4 20 10 48 15 62 4 14 13 43 18 65 6 22 14 51 18 64 5 20 10 22 37 17 17 -4 55 -9 84 -13 44 -5 53 -3 53 10 0 11 -17 19 -57 27 -32 6 -71 15 -87 21 -41 13 -45 12 -55 -13z"/>
      <path id="p4HTdT28C" d="M2040 980 c0 -17 7 -20 40 -20 45 0 57 23 18 34 -42 11 -58 7 -58 -14z"/>
      <path id="pHTeTvDj3" d="M3534 742 c-231 -195 -520 -342 -806 -411 -125 -29 -138 -34 -138 -49 0 -12 9 -13 43 -8 56 8 123 22 172 36 22 6 52 14 68 17 15 3 27 9 27 14 0 5 10 9 23 9 24 0 148 47 157 59 3 4 24 13 48 20 24 6 52 21 63 32 10 10 26 19 34 19 8 0 15 5 15 10 0 6 9 10 20 10 11 0 20 7 20 15 0 8 9 15 19 15 23 0 91 38 91 51 0 5 7 9 15 9 8 0 15 5 15 10 0 6 7 10 15 10 9 0 18 7 21 15 4 8 12 15 20 15 8 0 14 3 14 8 0 4 10 12 23 17 12 6 26 20 32 33 5 12 17 22 26 22 24 0 41 25 37 55 -3 26 -4 25 -74 -33z"/>
      <path id="plLxAsVkr" d="M643 700 c16 -23 147 -145 222 -206 136 -111 349 -235 545 -317 168 -70 285 -102 515 -141 112 -19 105 -20 105 4 0 20 -1 20 -110 35 -67 10 -131 22 -172 34 -21 6 -55 16 -75 22 -132 37 -154 44 -191 63 -17 9 -40 16 -51 16 -10 0 -21 3 -23 8 -1 4 -41 25 -87 47 -47 22 -125 64 -174 93 -49 28 -93 52 -98 52 -5 0 -9 5 -9 10 0 6 -7 10 -15 10 -8 0 -15 4 -15 8 0 12 -88 72 -105 72 -8 0 -15 7 -15 15 0 8 -9 15 -20 15 -11 0 -20 6 -20 13 0 25 -55 67 -88 67 -28 0 -32 3 -32 28 0 36 -37 72 -74 72 -25 0 -26 -1 -13 -20z"/>
      <path id="pu9rAnX4p" d="M2952 665 c-7 -14 -12 -32 -12 -40 0 -8 -9 -15 -20 -15 -11 0 -23 -7 -26 -15 -4 -8 -10 -15 -15 -15 -9 0 -67 -37 -79 -51 -6 -7 -87 -35 -122 -43 -19 -4 -28 -13 -28 -26 0 -24 6 -24 78 -4 130 37 272 152 272 219 0 25 -36 17 -48 -10z"/>
      <path id="p10OXujCGs" d="M1759 653 c-5 -55 5 -91 36 -128 43 -53 121 -95 209 -111 89 -17 86 -18 86 5 0 16 -9 21 -47 26 -126 16 -253 114 -253 195 0 33 -29 44 -31 13z"/>
      <path id="p1EIdCGQEc" d="M2533 463 c-26 -5 -32 -43 -7 -43 37 0 104 23 104 36 0 14 -45 17 -97 7z"/>
      <path id="pVIQh35kh" d="M2358 443 c-20 -3 -28 -10 -28 -25 0 -19 4 -20 48 -13 75 10 92 16 92 31 0 14 -47 17 -112 7z"/>
      <path id="pnlyjSp4n" d="M2250 416 c0 -16 25 -24 53 -18 32 8 19 32 -18 32 -24 0 -35 -5 -35 -14z"/>
      <path id="pvvF9ipHZ" d="M1940 281 c0 -21 26 -31 83 -31 57 0 48 26 -13 39 -67 14 -70 14 -70 -8z"/>
      <path id="pZw5hyHAV" d="M2493 288 c-56 -12 -59 -38 -5 -38 56 0 82 10 82 31 0 21 -12 22 -77 7z"/>
      <path id="pKd3aLOA4" d="M2160 260 c0 -19 7 -20 95 -20 88 0 95 1 95 20 0 19 -7 20 -95 20 -88 0 -95 -1 -95 -20z"/>
    </g>
  </g>
  <g id="l6pthL2KJlbPLF81ITrnbgZ" fill="rgb(249,110,175)" transform="none">
    <g>
      <path id="pCeLDNxg5" d="M1380 2551 c-74 -23 -117 -61 -149 -131 -57 -126 15 -271 154 -310 95 -27 208 27 256 123 26 51 28 140 4 188 -52 103 -168 159 -265 130z"/>
      <path id="pjy3quKIj" d="M3310 2375 c0 -38 3 -45 20 -45 21 0 26 23 14 68 -11 41 -34 26 -34 -23z"/>
      <path id="pDnIUvI30" d="M2936 2298 c-12 -45 -7 -68 14 -68 17 0 20 7 20 45 0 49 -23 64 -34 23z"/>
      <path id="pEhbPiltf" d="M3330 2110 c0 -43 3 -50 20 -50 15 0 20 7 20 28 0 42 -11 72 -26 72 -10 0 -14 -14 -14 -50z"/>
      <path id="paGdqg8Na" d="M3050 1948 c-57 -99 -72 -171 -68 -321 4 -132 4 -132 68 -317 58 -169 64 -194 68 -288 l5 -102 31 1 c26 0 41 12 87 67 133 159 235 331 285 479 24 71 26 88 22 212 -3 118 -7 142 -26 179 -34 63 -90 122 -118 122 -12 0 -26 5 -29 10 -4 6 -65 10 -150 10 l-145 0 -30 -52z"/>
    </g>
  </g>
  <g id="ljbBvUDQPepU0s9ambeuIK" fill="rgb(62,190,224)" transform="none">
    <g>
      <path id="p5XzesfDe" d="M2401 3258 c-177 -31 -241 -262 -106 -387 109 -100 279 -71 348 59 55 105 25 231 -71 295 -46 31 -113 44 -171 33z"/>
      <path id="pchuBD2dL" d="M3320 2245 c0 -38 3 -45 20 -45 21 0 26 23 14 68 -11 41 -34 26 -34 -23z"/>
      <path id="pUnaZI6FQ" d="M2926 2138 c-10 -38 -7 -48 14 -48 16 0 20 7 20 35 0 40 -24 49 -34 13z"/>
    </g>
  </g>
  <g id="l19O9BEovroEBNfvnnfFsO0" fill="rgb(239,198,9)" transform="none">
    <g>
      <path id="p193ehBqmm" d="M1975 4470 c-22 -4 -71 -13 -110 -19 -210 -34 -386 -93 -605 -202 -236 -118 -392 -231 -581 -419 -161 -161 -259 -287 -367 -476 -54 -94 -132 -263 -158 -343 -8 -25 -19 -55 -23 -66 -5 -11 -14 -40 -21 -65 -7 -25 -16 -56 -20 -70 -15 -47 -34 -154 -60 -337 -13 -93 -13 -353 0 -446 26 -183 45 -290 60 -337 4 -14 13 -45 20 -70 7 -25 16 -54 21 -65 4 -11 15 -40 23 -65 31 -97 122 -289 181 -386 192 -310 449 -571 746 -755 77 -48 277 -150 349 -178 88 -34 117 -44 150 -53 19 -5 50 -13 68 -19 17 -5 49 -14 70 -20 38 -11 81 -20 207 -41 90 -15 566 -16 660 -1 198 32 360 77 510 139 293 123 499 260 728 483 184 179 312 354 426 581 103 205 165 381 200 570 5 30 15 80 21 110 14 68 7 629 -8 710 -30 154 -64 283 -92 355 -4 11 -18 47 -31 80 -56 147 -161 341 -255 472 -78 110 -100 136 -219 260 -270 282 -570 469 -940 585 -119 38 -175 52 -272 68 -35 5 -90 15 -122 20 -67 12 -494 11 -556 0z m550 -269 c85 -11 158 -24 215 -40 19 -6 51 -14 70 -19 48 -13 129 -41 165 -57 17 -7 41 -16 55 -20 45 -14 233 -117 325 -178 442 -295 760 -777 846 -1282 45 -267 45 -453 0 -730 -42 -260 -184 -585 -356 -810 -49 -66 -146 -178 -181 -210 -166 -155 -267 -232 -426 -323 -110 -64 -307 -152 -338 -152 -10 0 -21 -4 -24 -9 -3 -5 -18 -11 -33 -14 -16 -3 -46 -11 -68 -17 -174 -50 -440 -75 -655 -60 -203 14 -313 35 -480 90 -427 142 -796 430 -1045 818 -52 82 -155 283 -155 305 0 7 -4 17 -9 23 -9 9 -37 84 -53 144 -5 19 -14 51 -19 70 -70 240 -86 620 -39 870 6 30 14 72 17 93 3 20 9 40 14 43 5 3 9 15 9 27 0 28 50 174 98 285 76 177 227 401 378 562 166 176 476 387 674 459 19 7 44 17 55 22 107 45 365 108 453 110 26 1 58 5 72 9 31 11 327 4 435 -9z"/>
      <path id="pX9i5Mign" d="M1790 4008 c-184 -38 -397 -126 -546 -226 -169 -112 -191 -133 -258 -242 -80 -130 -65 -168 159 -374 l105 -98 99 94 c200 190 420 302 686 347 l100 18 3 34 c10 95 -31 301 -72 364 -51 78 -154 109 -276 83z"/>
      <path id="pv8LH6Atz" d="M2391 3985 c-53 -19 -86 -63 -98 -131 -17 -90 -33 -225 -33 -276 0 -53 7 -58 85 -58 162 0 426 -91 594 -204 41 -28 56 -34 62 -24 6 9 9 4 9 -14 0 -16 4 -28 10 -28 13 0 17 26 25 135 7 104 17 119 84 139 25 8 45 19 44 25 -2 6 2 11 7 11 6 0 10 -4 10 -10 0 -5 6 -10 14 -10 8 0 23 -11 34 -25 17 -21 21 -48 27 -153 7 -132 11 -171 19 -179 7 -7 111 128 135 174 14 29 21 61 21 102 0 109 -61 186 -226 287 -199 122 -291 163 -550 244 -42 14 -232 10 -273 -5z"/>
      <path id="priyBylAd" d="M3585 3287 c-43 -17 -186 -118 -234 -165 -8 -7 -24 -20 -37 -29 -20 -12 -24 -24 -24 -63 0 -38 11 -69 59 -161 109 -210 148 -344 157 -539 6 -113 4 -130 -15 -179 -12 -29 -19 -56 -16 -60 9 -9 424 -6 461 3 53 13 122 83 144 146 23 62 26 172 9 247 -32 139 -64 260 -79 298 -4 11 -13 36 -20 55 -7 19 -21 54 -31 77 -11 24 -19 47 -19 51 0 5 -15 40 -34 78 -42 84 -167 212 -234 238 -49 18 -47 18 -87 3z"/>
      <path id="p23aLIpK0" d="M698 3104 c-31 -22 -72 -59 -91 -84 -115 -152 -237 -682 -197 -858 46 -203 90 -249 232 -239 40 3 111 11 158 17 47 7 108 15 135 19 58 7 55 -8 36 177 -17 171 8 385 61 529 27 74 72 170 104 225 18 32 34 62 34 67 0 12 -144 101 -229 141 -49 23 -96 37 -131 40 -51 4 -60 1 -112 -34z"/>
      <path id="p1BxaEbowx" d="M2970 2775 c0 -9 -9 -15 -25 -15 -28 0 -130 -85 -160 -133 -34 -56 2 -156 74 -204 19 -13 45 -23 57 -23 15 0 24 -6 24 -16 0 -9 7 -14 18 -12 15 3 19 24 29 158 16 223 16 260 -2 260 -8 0 -15 -7 -15 -15z"/>
      <path id="p1Fu9wJ8gX" d="M2503 2056 c-71 -17 -83 -22 -83 -40 0 -14 155 -295 234 -421 31 -49 63 -103 72 -119 13 -23 135 -208 224 -340 96 -142 210 -272 275 -314 34 -22 51 -26 115 -26 69 0 79 2 131 35 98 64 226 220 370 452 126 203 139 239 139 389 0 84 -4 114 -16 134 -19 28 -92 74 -118 74 -9 0 -24 4 -34 9 -9 5 -53 17 -97 26 -44 10 -98 22 -120 27 -54 13 -132 28 -178 35 -21 3 -41 11 -44 19 -3 8 -9 14 -14 14 -12 0 -11 -40 1 -41 6 -1 13 -2 18 -3 15 -3 78 -75 97 -110 11 -20 24 -36 29 -36 5 0 7 -3 4 -6 -4 -3 -2 -20 3 -37 15 -48 12 -228 -3 -253 -4 -6 -9 -21 -12 -35 -2 -13 -13 -42 -24 -64 -11 -22 -18 -43 -15 -47 2 -5 -1 -8 -7 -8 -6 0 -8 -4 -5 -10 3 -5 1 -10 -5 -10 -6 0 -8 -4 -5 -10 3 -5 1 -10 -5 -10 -6 0 -8 -4 -5 -10 3 -5 2 -10 -4 -10 -5 0 -13 -10 -17 -22 -3 -12 -15 -30 -25 -41 -10 -11 -16 -23 -14 -27 3 -5 -2 -11 -11 -14 -9 -4 -14 -9 -12 -12 3 -3 -7 -19 -23 -37 -16 -17 -27 -33 -25 -35 4 -3 -11 -22 -54 -67 -11 -12 -20 -24 -20 -28 0 -5 -14 -20 -30 -34 -17 -13 -28 -29 -25 -33 3 -5 1 -11 -5 -15 -6 -4 -10 18 -10 62 0 61 -4 75 -37 132 -21 34 -86 114 -145 176 -118 125 -145 163 -176 248 -25 65 -28 133 -10 186 23 67 74 137 122 167 l47 29 -3 59 c-2 37 -8 61 -15 64 -8 2 -13 -5 -13 -16 0 -19 -2 -20 -52 -6 -77 22 -288 27 -365 10z"/>
      <path id="pLwDvKTvn" d="M2282 1943 c-72 -71 -99 -140 -88 -230 14 -121 121 -258 265 -343 94 -54 126 -100 126 -181 0 -75 -38 -133 -110 -169 -49 -24 -56 -25 -255 -25 -193 1 -289 11 -361 40 -21 8 -31 -18 -88 -241 -6 -23 -11 -82 -11 -132 l0 -90 44 -48 c52 -58 131 -97 231 -114 126 -22 530 7 689 48 92 24 227 116 257 174 24 47 24 66 -3 147 -22 66 -523 1072 -559 1122 -10 15 -19 31 -19 36 0 5 -13 22 -29 37 l-29 28 -60 -59z"/>
      <path id="pGMstPKDq" d="M975 1789 c-222 -89 -328 -164 -359 -256 -21 -61 -20 -91 4 -150 63 -150 150 -261 382 -489 150 -147 187 -174 278 -202 120 -37 115 -36 175 -12 51 21 62 31 99 89 23 36 47 77 53 91 46 97 103 224 101 226 -2 1 -30 17 -63 34 -263 142 -445 338 -572 615 -18 38 -36 71 -40 72 -4 1 -30 -7 -58 -18z"/>
    </g>
  </g>
  <g id="l1Ld4NOcDKPD4Fd3NchGuNS" fill="rgb(236,134,45)" transform="none">
    <g>
      <path id="pgdbQBYI4" d="M3094 3549 c-63 -18 -70 -37 -83 -224 -6 -93 -16 -228 -21 -300 -6 -71 -17 -231 -25 -355 -9 -124 -18 -242 -21 -262 -5 -34 -3 -38 15 -38 16 0 21 6 21 25 0 24 3 25 60 25 47 0 60 3 60 15 0 8 -7 15 -15 15 -13 0 -15 11 -10 73 3 39 13 223 21 407 30 621 25 569 57 594 42 34 13 46 -59 25z"/>
      <path id="p10qIxLsZi" d="M3340 1991 c0 -10 9 -21 20 -24 21 -5 24 1 14 27 -9 22 -34 20 -34 -3z"/>
      <path id="pTT5D0eax" d="M2920 1986 c0 -8 -20 -27 -44 -42 -91 -58 -141 -168 -134 -299 6 -122 49 -203 176 -338 152 -160 188 -213 217 -320 l14 -52 0 73 c1 83 -23 143 -84 207 -19 21 -35 40 -35 44 0 12 -145 151 -157 151 -7 0 -13 7 -13 15 0 8 -17 45 -37 82 -36 65 -38 73 -38 159 0 85 2 94 33 143 17 29 32 55 32 59 0 4 23 20 50 37 44 25 50 33 50 62 0 23 -5 33 -15 33 -8 0 -15 -6 -15 -14z"/>
      <path id="p11A3VNd3A" d="M3523 1670 c0 -36 2 -50 4 -32 2 17 2 47 0 65 -2 17 -4 3 -4 -33z"/>
    </g>
  </g>
  <g id="l7W3Pja0vAZ5Rw03y54q5bS" fill="rgb(70,188,142)" transform="none">
    <g>
      <path id="peAGnks1J" d="M1747 3096 c-93 -25 -157 -113 -157 -216 0 -74 23 -124 81 -173 109 -94 275 -58 342 72 56 112 15 246 -93 301 -50 25 -117 31 -173 16z"/>
      <path id="p1Fj0a8eFy" d="M3340 1995 c0 -14 6 -25 13 -25 20 0 25 9 20 31 -8 28 -33 24 -33 -6z"/>
    </g>
  </g>
  <g id="l27yChNPysfN3rA6XoVak88" fill="rgb(219,30,88)" transform="none">
    <g>
      <path id="pHTf1LAiV" d="M2963 1993 c-25 -3 -43 -9 -43 -16 0 -7 -19 -23 -41 -37 -59 -35 -114 -123 -128 -205 -26 -147 23 -270 168 -420 145 -149 201 -233 221 -329 7 -31 9 -16 6 64 -3 99 -6 115 -66 290 -58 169 -64 194 -68 287 -3 84 0 114 17 170 24 79 76 174 94 172 30 -4 47 2 47 16 0 12 -15 15 -82 13 -46 -1 -102 -3 -125 -5z"/>
    </g>
  </g>
  <g id="l4A3EJJKzxhzPpI85Q22iVt" fill="rgb(60,74,91)" transform="none">
    <g>
      <path id="ph69s5Xlk" d="M2946 2413 c-3 -21 -6 -55 -6 -75 0 -31 4 -38 20 -38 16 0 20 7 20 38 0 20 3 54 6 75 6 32 4 37 -13 37 -16 0 -22 -9 -27 -37z"/>
      <path id="pemTW8Mtt" d="M3036 2358 c-3 -51 -10 -160 -15 -243 -5 -82 -9 -150 -8 -150 1 0 82 1 180 3 l177 3 0 37 c0 20 -7 118 -15 217 -8 99 -15 190 -15 203 0 22 -1 22 -149 22 l-149 0 -6 -92z"/>
      <path id="p19kwukwKW" d="M2936 2263 c-3 -16 -8 -79 -12 -140 -6 -110 -6 -113 15 -113 17 0 21 6 21 33 0 19 3 82 7 140 5 93 4 107 -10 107 -9 0 -18 -11 -21 -27z"/>
    </g>
  </g>
  <g id="l4babEKLU8xhJZvHmw79DzH" fill="rgb(35,47,62)" transform="none">
    <g>
      <path id="pXsIXT5Ir" d="M2955 2428 c-4 -18 -35 -425 -35 -460 0 -13 106 -9 118 5 8 9 32 358 32 460 0 14 -9 17 -55 17 -48 0 -55 -3 -60 -22z"/>
    </g>
  </g>
</svg>